<?xml version="1.0" encoding="utf-8"?>
<!-- Generator: Adobe Illustrator 25.0.0, SVG Export Plug-In . SVG Version: 6.00 Build 0)  -->
<svg version="1.1" id="Ebene_1" xmlns="http://www.w3.org/2000/svg" xmlns:xlink="http://www.w3.org/1999/xlink" x="0px" y="0px"
	 viewBox="0 0 804.8 283.6" style="enable-background:new 0 0 804.8 283.6;" xml:space="preserve">
<style type="text/css">
	.st0{fill:#FFFFFF;}
	.st1{fill:none;stroke:#FF9A9A;stroke-width:4;stroke-linecap:round;stroke-linejoin:round;stroke-miterlimit:10;}
	.st2{fill:none;stroke:#FFC694;stroke-width:4;stroke-linecap:round;stroke-linejoin:round;stroke-miterlimit:10;}
	.st3{fill:none;stroke:#FFFF93;stroke-width:4;stroke-linecap:round;stroke-linejoin:round;stroke-miterlimit:10;}
	.st4{fill:none;stroke:#96FF96;stroke-width:4;stroke-linecap:round;stroke-linejoin:round;stroke-miterlimit:10;}
	.st5{fill:none;stroke:#A0A0FF;stroke-width:4;stroke-linecap:round;stroke-linejoin:round;stroke-miterlimit:10;}
	.st6{fill:none;stroke:#FF93F8;stroke-width:4;stroke-linecap:round;stroke-linejoin:round;stroke-miterlimit:10;}
</style>
<g>
	<g>
		<path class="st0" d="M86.4,68.1c-5.6-3.6-12-5.4-19.2-5.4c-5.5,0-10,0.9-13.3,2.8c-3.4,1.8-6,4-7.9,6.4c-1.9,2.4-3.3,4.6-4.3,6.4
			h-1.4V63.8H23.3v122.3h17.3v-47.2h1c1,1.9,2.5,4.1,4.5,6.5c1.9,2.4,4.6,4.6,8,6.4c3.4,1.8,7.8,2.7,13.2,2.7
			c7.2,0,13.6-1.8,19.2-5.5c5.6-3.7,10-9,13.2-15.8c3.2-6.9,4.8-15.1,4.8-24.7c0-9.6-1.6-17.8-4.8-24.7C96.5,77,92.1,71.7,86.4,68.1
			z M84.4,124.3c-1.8,4.8-4.4,8.5-7.9,11.3c-3.5,2.8-7.8,4.1-13,4.1c-5,0-9.2-1.3-12.6-4c-3.4-2.6-6.1-6.3-7.9-11
			c-1.8-4.7-2.7-10.2-2.7-16.5c0-6.2,0.9-11.6,2.7-16.2c1.8-4.6,4.4-8.2,7.8-10.8c3.5-2.6,7.7-3.9,12.7-3.9c5.2,0,9.6,1.4,13.1,4.1
			c3.5,2.7,6.1,6.4,7.9,11.1c1.8,4.7,2.6,9.9,2.6,15.8C87.1,114.2,86.2,119.6,84.4,124.3z"/>
		<rect x="116.3" y="63.8" class="st0" width="17.3" height="89"/>
		<path class="st0" d="M125,29.4c-3,0-5.6,1-7.7,3c-2.1,2-3.2,4.5-3.2,7.3c0,2.8,1.1,5.2,3.2,7.3c2.1,2,4.7,3,7.7,3c3,0,5.6-1,7.7-3
			c2.1-2,3.2-4.5,3.2-7.3c0-2.8-1.1-5.2-3.2-7.3C130.6,30.4,128,29.4,125,29.4z"/>
		<polygon class="st0" points="220.1,63.8 201.1,63.8 181.3,98.4 161.7,63.8 142.7,63.8 170,108.3 142.3,152.8 161.3,152.8 
			181.3,119.5 201.3,152.8 220.3,152.8 192.3,108.3 		"/>
		<path class="st0" d="M290.1,73c-3.7-3.6-8-6.2-12.7-7.8c-4.7-1.7-9.6-2.5-14.6-2.5c-8.3,0-15.5,2-21.6,5.9
			c-6.2,3.9-10.9,9.3-14.4,16.3s-5.1,15-5.1,24.1c0,9.2,1.7,17.3,5.1,24.1c3.4,6.9,8.3,12.2,14.6,15.9c6.3,3.8,13.9,5.6,22.6,5.6
			c6.5,0,12.3-1,17.4-3c5.1-2,9.3-4.8,12.7-8.4c3.4-3.6,5.7-7.8,7-12.7l-16.4-3c-1,2.8-2.5,5.1-4.5,7c-2,1.9-4.3,3.3-7,4.3
			c-2.7,0.9-5.7,1.4-9,1.4c-5.1,0-9.5-1.1-13.3-3.3c-3.8-2.2-6.7-5.4-8.8-9.5c-2-3.9-3-8.5-3.1-14h63.2v-6.1
			c0-8.1-1.1-14.9-3.2-20.6C296.8,81.1,293.8,76.5,290.1,73z M239,100.5c0.2-3.8,1.2-7.4,2.9-10.7c1.9-3.8,4.7-6.9,8.3-9.3
			c3.6-2.4,7.8-3.6,12.7-3.6c4.5,0,8.4,1,11.7,3.1c3.3,2,5.9,4.8,7.8,8.4c1.9,3.5,2.8,7.6,2.8,12.1H239z"/>
		<rect x="314.5" y="34.1" class="st0" width="17.3" height="118.6"/>
	</g>
	<path class="st1" d="M320.5,254c-7,0-13.2-1.8-18.8-5.4c-5.5-3.6-9.9-8.8-13.1-15.6c-3.2-6.8-4.8-15.1-4.8-24.9
		c0-9.9,1.6-18.2,4.9-25.1c3.3-6.8,7.7-12,13.2-15.5c5.6-3.5,11.8-5.2,18.6-5.2c5.2,0,9.5,0.9,12.9,2.6c3.4,1.8,6,3.9,8,6.3
		c2,2.5,3.5,4.8,4.6,6.9h0.9v-44.4h21v118.6h-20.6v-14H346c-1.1,2.2-2.6,4.5-4.7,6.9c-2,2.4-4.8,4.5-8.1,6.2S325.6,254,320.5,254z
		 M326.3,236.8c4.4,0,8.2-1.2,11.4-3.6c3.1-2.4,5.5-5.8,7.1-10.1s2.4-9.4,2.4-15.1c0-5.8-0.8-10.8-2.4-15c-1.6-4.2-4-7.5-7.1-9.9
		c-3.1-2.4-6.9-3.5-11.4-3.5c-4.7,0-8.6,1.2-11.7,3.6c-3.1,2.4-5.5,5.8-7.1,10.1c-1.6,4.3-2.4,9.2-2.4,14.7c0,5.6,0.8,10.5,2.4,14.9
		c1.6,4.3,4,7.8,7.1,10.3C317.9,235.6,321.7,236.8,326.3,236.8z"/>
	<path class="st2" d="M407.3,254.3c-5.6,0-10.7-1-15.2-3c-4.5-2-8.1-5-10.7-9s-3.9-8.9-3.9-14.7c0-5,0.9-9.2,2.8-12.5
		c1.9-3.3,4.4-5.9,7.6-7.9c3.2-2,6.8-3.5,10.9-4.5c4-1,8.2-1.8,12.5-2.2c5.2-0.5,9.4-1,12.7-1.5c3.2-0.4,5.6-1.1,7.1-2.1
		c1.5-0.9,2.2-2.4,2.2-4.4v-0.3c0-4.4-1.3-7.7-3.9-10.1c-2.6-2.4-6.3-3.6-11.2-3.6c-5.1,0-9.2,1.1-12.2,3.4c-3,2.2-5,4.9-6.1,7.9
		l-19.6-2.8c1.5-5.4,4.1-9.9,7.6-13.6c3.6-3.6,7.9-6.4,13-8.2c5.1-1.8,10.8-2.8,17-2.8c4.3,0,8.6,0.5,12.8,1.5c4.2,1,8.1,2.7,11.6,5
		c3.5,2.3,6.3,5.4,8.5,9.4c2.1,3.9,3.2,8.9,3.2,14.8v59.6h-20.2v-12.2h-0.7c-1.3,2.5-3.1,4.8-5.4,6.9c-2.3,2.1-5.2,3.9-8.6,5.2
		C416,253.6,412,254.3,407.3,254.3z M412.8,238.8c4.2,0,7.9-0.8,10.9-2.5c3.1-1.7,5.5-3.9,7.2-6.7c1.7-2.8,2.5-5.8,2.5-9.1v-10.5
		c-0.7,0.5-1.8,1-3.3,1.5c-1.6,0.5-3.3,0.9-5.2,1.2c-1.9,0.3-3.8,0.7-5.7,0.9c-1.9,0.3-3.5,0.5-4.9,0.7c-3.1,0.4-5.9,1.1-8.4,2.1
		c-2.5,1-4.4,2.3-5.9,4c-1.4,1.7-2.1,3.9-2.1,6.6c0,3.9,1.4,6.8,4.2,8.7C404.8,237.9,408.4,238.8,412.8,238.8z"/>
	<path class="st3" d="M537.2,187l-19.1,2.1c-0.5-1.9-1.5-3.7-2.8-5.4c-1.3-1.7-3.1-3.1-5.4-4.1c-2.2-1-5-1.6-8.2-1.6
		c-4.4,0-8,0.9-11,2.8c-3,1.9-4.4,4.3-4.4,7.4c0,2.6,0.9,4.7,2.9,6.3c1.9,1.6,5.2,3,9.7,4l15.2,3.2c8.4,1.8,14.7,4.7,18.8,8.6
		c4.1,3.9,6.2,9.1,6.2,15.5c0,5.6-1.7,10.5-4.9,14.8c-3.2,4.3-7.7,7.6-13.4,10c-5.7,2.4-12.3,3.6-19.7,3.6
		c-10.9,0-19.7-2.3-26.3-6.9c-6.6-4.6-10.6-11-11.9-19.1l20.4-2c0.9,4,2.9,7,5.9,9.1c3,2,6.9,3.1,11.8,3.1c5,0,9-1,12-3.1
		c3-2,4.5-4.6,4.5-7.6c0-2.5-1-4.7-2.9-6.3c-2-1.7-5-2.9-9.1-3.8l-15.2-3.2c-8.5-1.8-14.8-4.8-18.9-9c-4.1-4.2-6.1-9.6-6.1-16.1
		c0-5.5,1.5-10.2,4.5-14.3c3-4,7.3-7.2,12.7-9.4s11.7-3.3,18.8-3.3c10.4,0,18.6,2.2,24.6,6.7C532,173.4,535.8,179.4,537.2,187z"/>
	<path class="st4" d="M569.8,200.3v52.1h-21V133.8h20.5v44.8h1c2.1-5,5.3-9,9.7-11.9c4.4-2.9,10-4.4,16.8-4.4
		c6.2,0,11.6,1.3,16.2,3.9c4.6,2.6,8.2,6.4,10.7,11.4c2.5,5,3.8,11.1,3.8,18.2v56.7h-21V199c0-6-1.5-10.6-4.6-14
		c-3.1-3.3-7.4-5-12.9-5c-3.7,0-7,0.8-9.9,2.4c-2.9,1.6-5.2,3.9-6.8,6.9C570.6,192.4,569.8,196,569.8,200.3z"/>
	<path class="st5" d="M658.3,213.7c0,5.2,0.9,9.1,2.8,12.7c1.9,3.7,4.5,6.5,7.9,8.5s7.4,2.9,11.9,2.9c3.1,0,5.8-0.4,8.3-1.3
		c2.5-0.9,4.6-2.2,6.4-3.9c1.8-1.7,3.2-3.8,4.1-6.3l19.6,2.2c-1.2,5.2-3.6,9.7-7,13.5c-3.5,3.8-7.9,6.8-13.2,8.9s-11.5,3.2-18.4,3.2
		c-8.9,0-16.6-1.9-23.1-5.6c-6.5-3.7-11.4-9-14.9-15.9c-3.5-6.9-5.2-14.9-5.2-24.2c0-9.2,1.7-17.2,5.2-24.1
		c3.5-6.9,8.4-12.3,14.7-16.2c6.3-3.9,13.7-5.8,22.2-5.8c5.5,0,10.7,0.9,15.6,2.6c4.9,1.8,9.2,4.5,13,8.1c3.8,3.7,6.7,8.3,8.9,14
		c2.2,5.7,3.2,12.4,3.2,20.2v6.4h-61.8 M658.3,213.1 M658.3,198.8 M658.6,199.6h41.5c0-4-0.9-7.6-2.6-10.7c-1.7-3.1-4.1-5.6-7.1-7.4
		c-3-1.8-6.6-2.7-10.6-2.7c-4.3,0-8.1,1-11.3,3.1c-3.2,2.1-5.8,4.8-7.6,8.1s-2.7,5.7-2.7,9.7"/>
	<path class="st6" d="M730.8,252.5v-89h20.3v14.8h0.9c1.6-5.1,4.4-9.1,8.4-11.9c4-2.8,8.5-4.2,13.6-4.2c1.2,0,2.5,0,3.9,0.1
		c1.4,0.1,2.7,0.2,3.6,0.4v19.3c-0.9-0.3-2.3-0.6-4.2-0.8c-1.9-0.3-3.8-0.4-5.5-0.4c-3.8,0-7.3,0.8-10.3,2.5c-3,1.6-5.4,3.9-7.2,6.8
		s-2.6,6.2-2.6,10v52.3H730.8z"/>
</g>
</svg>
