<svg xmlns="http://www.w3.org/2000/svg" viewBox="0 0 804.8 283.6"><path d="M307.2 209.6v-47.4h-47.4V257h94.8v-47.4z" fill="#ff9a9a"/><path d="M401.9 209.6v-47.4h-47.4V257h94.8v-47.4z" fill="#ffc694"/><path d="M496.4 162.2H449V257h94.8v-94.8z" fill="#ffff93"/><path d="M589.1 162.2v-47.4h-47.4V257h94.8v-94.8z" fill="#96ff96"/><path d="M683.6 162.2v47.4h-47.4V257H731v-94.8z" fill="#a0a0ff"/><path d="M730.8 162.2V257h47.4v-94.8z" fill="#ff93f8"/><path d="M355 115.8V21h-47.4l-.4 47.4v47.4h-47.4V68.4H117.6v47.4H70.2V68.4H22.8v142.2h47.4v-47.4H165v-47.4h47.4v47.4H355z" fill="#fff"/></svg>