<svg xmlns="http://www.w3.org/2000/svg" viewBox="0 0 804.8 283.6"><path d="M86.4 68.1c-5.6-3.6-12-5.4-19.2-5.4-5.5 0-10 .9-13.3 2.8-3.4 1.8-6 4-7.9 6.4s-3.3 4.6-4.3 6.4h-1.4V63.8h-17v122.3h17.3v-47.2h1c1 1.9 2.5 4.1 4.5 6.5 1.9 2.4 4.6 4.6 8 6.4s7.8 2.7 13.2 2.7c7.2 0 13.6-1.8 19.2-5.5s10-9 13.2-15.8c3.2-6.9 4.8-15.1 4.8-24.7s-1.6-17.8-4.8-24.7c-3.2-6.8-7.6-12.1-13.3-15.7zm-2 56.2c-1.8 4.8-4.4 8.5-7.9 11.3s-7.8 4.1-13 4.1c-5 0-9.2-1.3-12.6-4-3.4-2.6-6.1-6.3-7.9-11s-2.7-10.2-2.7-16.5c0-6.2.9-11.6 2.7-16.2s4.4-8.2 7.8-10.8c3.5-2.6 7.7-3.9 12.7-3.9 5.2 0 9.6 1.4 13.1 4.1s6.1 6.4 7.9 11.1 2.6 9.9 2.6 15.8-.9 11.3-2.7 16zm31.9-60.5h17.3v89h-17.3zm8.7-34.4c-3 0-5.6 1-7.7 3s-3.2 4.5-3.2 7.3 1.1 5.2 3.2 7.3c2.1 2 4.7 3 7.7 3s5.6-1 7.7-3 3.2-4.5 3.2-7.3-1.1-5.2-3.2-7.3c-2.1-2-4.7-3-7.7-3zm95.1 34.4h-19l-19.8 34.6-19.6-34.6h-19l27.3 44.5-27.7 44.5h19l20-33.3 20 33.3h19l-28-44.5zm70 9.2c-3.7-3.6-8-6.2-12.7-7.8-4.7-1.7-9.6-2.5-14.6-2.5-8.3 0-15.5 2-21.6 5.9-6.2 3.9-10.9 9.3-14.4 16.3s-5.1 15-5.1 24.1c0 9.2 1.7 17.3 5.1 24.1 3.4 6.9 8.3 12.2 14.6 15.9 6.3 3.8 13.9 5.6 22.6 5.6 6.5 0 12.3-1 17.4-3s9.3-4.8 12.7-8.4 5.7-7.8 7-12.7l-16.4-3c-1 2.8-2.5 5.1-4.5 7s-4.3 3.3-7 4.3c-2.7.9-5.7 1.4-9 1.4-5.1 0-9.5-1.1-13.3-3.3s-6.7-5.4-8.8-9.5c-2-3.9-3-8.5-3.1-14h63.2v-6.1c0-8.1-1.1-14.9-3.2-20.6-2.2-5.6-5.2-10.2-8.9-13.7zM239 100.5c.2-3.8 1.2-7.4 2.9-10.7 1.9-3.8 4.7-6.9 8.3-9.3s7.8-3.6 12.7-3.6c4.5 0 8.4 1 11.7 3.1 3.3 2 5.9 4.8 7.8 8.4 1.9 3.5 2.8 7.6 2.8 12.1H239zm75.5-66.4h17.3v118.6h-17.3z" fill="#fff"/><g fill="none" stroke-width="4" stroke-linejoin="round" stroke-miterlimit="10"><path d="M320.5 254c-7 0-13.2-1.8-18.8-5.4-5.5-3.6-9.9-8.8-13.1-15.6s-4.8-15.1-4.8-24.9c0-9.9 1.6-18.2 4.9-25.1 3.3-6.8 7.7-12 13.2-15.5 5.6-3.5 11.8-5.2 18.6-5.2 5.2 0 9.5.9 12.9 2.6 3.4 1.8 6 3.9 8 6.3 2 2.5 3.5 4.8 4.6 6.9h.9v-44.4h21v118.6h-20.6v-14H346c-1.1 2.2-2.6 4.5-4.7 6.9-2 2.4-4.8 4.5-8.1 6.2s-7.6 2.6-12.7 2.6zm5.8-17.2c4.4 0 8.2-1.2 11.4-3.6 3.1-2.4 5.5-5.8 7.1-10.1s2.4-9.4 2.4-15.1c0-5.8-.8-10.8-2.4-15s-4-7.5-7.1-9.9-6.9-3.5-11.4-3.5c-4.7 0-8.6 1.2-11.7 3.6s-5.5 5.8-7.1 10.1-2.4 9.2-2.4 14.7c0 5.6.8 10.5 2.4 14.9 1.6 4.3 4 7.8 7.1 10.3 3.3 2.4 7.1 3.6 11.7 3.6z" stroke="#ff9a9a"/><path d="M407.3 254.3c-5.6 0-10.7-1-15.2-3s-8.1-5-10.7-9-3.9-8.9-3.9-14.7c0-5 .9-9.2 2.8-12.5s4.4-5.9 7.6-7.9 6.8-3.5 10.9-4.5c4-1 8.2-1.8 12.5-2.2 5.2-.5 9.4-1 12.7-1.5 3.2-.4 5.6-1.1 7.1-2.1 1.5-.9 2.2-2.4 2.2-4.4v-.3c0-4.4-1.3-7.7-3.9-10.1s-6.3-3.6-11.2-3.6c-5.1 0-9.2 1.1-12.2 3.4-3 2.2-5 4.9-6.1 7.9l-19.6-2.8c1.5-5.4 4.1-9.9 7.6-13.6a34.33 34.33 0 0 1 13-8.2c5.1-1.8 10.8-2.8 17-2.8 4.3 0 8.6.5 12.8 1.5s8.1 2.7 11.6 5 6.3 5.4 8.5 9.4c2.1 3.9 3.2 8.9 3.2 14.8v59.6h-20.2v-12.2h-.7c-1.3 2.5-3.1 4.8-5.4 6.9s-5.2 3.9-8.6 5.2c-3.1 1-7.1 1.7-11.8 1.7zm5.5-15.5c4.2 0 7.9-.8 10.9-2.5 3.1-1.7 5.5-3.9 7.2-6.7s2.5-5.8 2.5-9.1V210c-.7.5-1.8 1-3.3 1.5-1.6.5-3.3.9-5.2 1.2s-3.8.7-5.7.9c-1.9.3-3.5.5-4.9.7-3.1.4-5.9 1.1-8.4 2.1s-4.4 2.3-5.9 4c-1.4 1.7-2.1 3.9-2.1 6.6 0 3.9 1.4 6.8 4.2 8.7 2.7 2.2 6.3 3.1 10.7 3.1z" stroke="#ffc694"/><path d="M537.2 187l-19.1 2.1c-.5-1.9-1.5-3.7-2.8-5.4s-3.1-3.1-5.4-4.1c-2.2-1-5-1.6-8.2-1.6-4.4 0-8 .9-11 2.8s-4.4 4.3-4.4 7.4c0 2.6.9 4.7 2.9 6.3 1.9 1.6 5.2 3 9.7 4l15.2 3.2c8.4 1.8 14.7 4.7 18.8 8.6s6.2 9.1 6.2 15.5c0 5.6-1.7 10.5-4.9 14.8s-7.7 7.6-13.4 10-12.3 3.6-19.7 3.6c-10.9 0-19.7-2.3-26.3-6.9s-10.6-11-11.9-19.1l20.4-2c.9 4 2.9 7 5.9 9.1 3 2 6.9 3.1 11.8 3.1 5 0 9-1 12-3.1 3-2 4.5-4.6 4.5-7.6 0-2.5-1-4.7-2.9-6.3-2-1.7-5-2.9-9.1-3.8l-15.2-3.2c-8.5-1.8-14.8-4.8-18.9-9s-6.1-9.6-6.1-16.1c0-5.5 1.5-10.2 4.5-14.3 3-4 7.3-7.2 12.7-9.4s11.7-3.3 18.8-3.3c10.4 0 18.6 2.2 24.6 6.7 6.1 4.4 9.9 10.4 11.3 18z" stroke="#ffff93"/><path d="M569.8 200.3v52.1h-21V133.8h20.5v44.8h1c2.1-5 5.3-9 9.7-11.9s10-4.4 16.8-4.4c6.2 0 11.6 1.3 16.2 3.9s8.2 6.4 10.7 11.4 3.8 11.1 3.8 18.2v56.7h-21V199c0-6-1.5-10.6-4.6-14-3.1-3.3-7.4-5-12.9-5-3.7 0-7 .8-9.9 2.4s-5.2 3.9-6.8 6.9c-1.7 3.1-2.5 6.7-2.5 11z" stroke="#96ff96"/><path d="M658.3 213.7c0 5.2.9 9.1 2.8 12.7 1.9 3.7 4.5 6.5 7.9 8.5s7.4 2.9 11.9 2.9c3.1 0 5.8-.4 8.3-1.3s4.6-2.2 6.4-3.9 3.2-3.8 4.1-6.3l19.6 2.2c-1.2 5.2-3.6 9.7-7 13.5-3.5 3.8-7.9 6.8-13.2 8.9s-11.5 3.2-18.4 3.2c-8.9 0-16.6-1.9-23.1-5.6s-11.4-9-14.9-15.9-5.2-14.9-5.2-24.2c0-9.2 1.7-17.2 5.2-24.1s8.4-12.3 14.7-16.2 13.7-5.8 22.2-5.8c5.5 0 10.7.9 15.6 2.6 4.9 1.8 9.2 4.5 13 8.1 3.8 3.7 6.7 8.3 8.9 14s3.2 12.4 3.2 20.2v6.4h-61.8m.1-14h41.5c0-4-.9-7.6-2.6-10.7s-4.1-5.6-7.1-7.4-6.6-2.7-10.6-2.7c-4.3 0-8.1 1-11.3 3.1s-5.8 4.8-7.6 8.1-2.7 5.7-2.7 9.7" stroke="#a0a0ff" stroke-linecap="round"/><path d="M730.8 252.5v-89h20.3v14.8h.9c1.6-5.1 4.4-9.1 8.4-11.9s8.5-4.2 13.6-4.2c1.2 0 2.5 0 3.9.1s2.7.2 3.6.4V182c-.9-.3-2.3-.6-4.2-.8-1.9-.3-3.8-.4-5.5-.4-3.8 0-7.3.8-10.3 2.5-3 1.6-5.4 3.9-7.2 6.8s-2.6 6.2-2.6 10v52.3h-20.9z" stroke="#ff93f8"/></g></svg>