<svg xmlns="http://www.w3.org/2000/svg" xmlns:xlink="http://www.w3.org/1999/xlink" viewBox="0 0 1500 500" fill-rule="evenodd" stroke-linejoin="round" stroke-miterlimit="2"><g opacity=".67" fill="#fff" fill-rule="nonzero"><path d="M81.1 335.4c-.1-1.4-.7-2.1-2.1-2.1h-3.9c-2.3 0-3.5-1.1-3.5-3.2s1.3-3.2 3.8-3.2h6.1c4.1 0 6.3 1.8 6.5 5.5V343c0 3-.4 5.4-1.3 7-2.8 5.2-7.4 7.8-13.7 7.8-11.9 0-17.9-9.9-17.9-29.5 0-8.3 1.5-15.1 4.5-20.4s7.6-7.9 13.8-7.9c5.7 0 9.8 2.2 12.3 6.6 1.5 2.7 2.3 5 2.3 6.9 0 2.1-1.1 3.1-3.3 3.1-2.1 0-3.5-1.2-4.1-3.7-1-4.2-3.5-6.4-7.5-6.4-7.2 0-10.9 7.1-10.9 21.4 0 15.8 3.6 23.6 10.7 23.6 5.3 0 7.9-2.7 8-8.2l.2-7.9zm28.7-18.1c4.8 0 8.6 1.7 11.5 5.1s4.4 8.5 4.4 15.2c0 13.4-5.4 20.2-16.2 20.2s-16.2-6.8-16.2-20.2c.1-13.5 5.6-20.3 16.5-20.3zm-.3 6.1c-6.2 0-9.2 5.1-9.2 15.4 0 8.7 3.1 13.1 9.3 13.1s9.2-4.7 9.2-14c0-9.7-3.1-14.5-9.3-14.5z"/><use xlink:href="#B"/><path d="M193.9 351.9c-2.7 3.9-6.2 5.9-10.6 5.9-4.7 0-8.3-1.9-10.7-5.8s-3.6-8.8-3.6-14.9c0-6 1.3-10.8 4-14.4s6.1-5.4 10.4-5.4 7.8 2 10.6 6.1V304c0-2.7 1.1-4.1 3.4-4.1 2.2 0 3.3 1.4 3.3 4.1v50.5c0 2.3-1.1 3.4-3.4 3.4-2.2 0-3.3-1-3.3-3.1l-.1-2.9zm0-18.4c0-2.1-.9-4.4-2.6-6.7-1.8-2.3-4.1-3.5-6.9-3.5-5.7 0-8.5 4.7-8.5 14 0 9.7 2.8 14.5 8.3 14.5 2.8 0 5.1-1 6.9-3.1s2.8-4.3 2.8-6.6v-8.6zm57.9 5.7v.7c.1 8.3 3.2 12.4 9.6 12.4 4.2 0 7-2 8.3-5.8.7-2.1 1.9-3.2 3.7-3.2 2.2 0 3.2 1 3.2 3 0 2.6-1.4 5.2-4.1 7.8s-6.4 3.9-10.9 3.9c-5.3 0-9.4-1.8-12.3-5.5s-4.4-8.6-4.4-14.8c0-6.1 1.4-11 4.1-14.7s6.7-5.6 11.8-5.6 9 1.6 11.7 4.8 4.1 7.3 4.1 12.4c0 3.1-1.6 4.6-4.8 4.6h-20zm.2-5.9h16.8c.6 0 .9-.3.9-.8.022-2.383-.752-4.707-2.2-6.6-1.5-2-3.6-3-6.5-3-5.3.1-8.3 3.5-9 10.4zm46.6 16.7l10.1-29.8c.6-1.9 1.8-2.9 3.4-2.9 2.2 0 3.2 1 3.2 2.9l-.1 1-11.5 33c-.8 2.4-2.6 3.6-5.2 3.6s-4.3-1.2-5.2-3.6l-11.1-32.1c-.3-.8-.4-1.4-.4-1.9 0-1.9 1.1-2.9 3.2-2.9 1.6 0 2.8 1 3.5 3.1l10.1 29.6zm28.8-10.8v.7c.1 8.3 3.2 12.4 9.6 12.4 4.2 0 7-2 8.3-5.8.7-2.1 1.9-3.2 3.7-3.2 2.2 0 3.2 1 3.2 3 0 2.6-1.4 5.2-4.1 7.8s-6.4 3.9-10.9 3.9c-5.3 0-9.4-1.8-12.3-5.5s-4.4-8.6-4.4-14.8c0-6.1 1.4-11 4.1-14.7s6.7-5.6 11.8-5.6 9 1.6 11.7 4.8 4.1 7.3 4.1 12.4c0 3.1-1.6 4.6-4.8 4.6h-20zm.3-5.9h16.8c.6 0 .9-.3.9-.8.022-2.383-.752-4.707-2.2-6.6-1.5-2-3.6-3-6.5-3-5.4.1-8.3 3.5-9 10.4z"/><use xlink:href="#C"/><path d="M412.2 299.9c1.4 0 2.5.5 3.5 1.6.8.9 1.3 2 1.3 3.2 0 3.2-1.6 4.8-4.8 4.8s-4.8-1.6-4.8-4.8c-.1-3.2 1.5-4.8 4.8-4.8zm-3.7 22c0-2.8 1.2-4.2 3.5-4.2s3.5 1.4 3.5 4.2v31.8c0 2.8-1.2 4.1-3.5 4.1s-3.5-1.4-3.5-4.1v-31.8zm32.6 2.6c3.6-4.8 7.8-7.2 12.7-7.2 7.6 0 11.5 4.4 11.6 13.3v23.2c0 2.7-1.1 4.1-3.4 4.1-2.2 0-3.3-1.4-3.3-4.1v-22c0-5.7-2.1-8.5-6.3-8.5-3.1 0-5.8 1.2-8 3.6s-3.3 4.7-3.3 6.9v20c0 2.7-1.1 4.1-3.4 4.1-2.2 0-3.3-1.4-3.3-4.1v-32.7c0-2.5 1.1-3.8 3.3-3.8 2.3 0 3.4 1.2 3.4 3.7v3.5zm55.3-3.9c2.2-2.2 4.2-3.3 6.1-3.3 1.7 0 2.6 1 2.6 3 0 1.5-.8 2.5-2.5 3.1-1.7.5-2.8.9-3.2 1.2 1 1.9 1.5 3.8 1.5 5.9 0 3.1-1.3 5.8-3.8 7.9s-5.7 3.2-9.5 3.2c-1.4 0-2.8-.2-4.1-.5-1.7.6-2.5 1.4-2.5 2.2 0 1.1 1.7 2 5 2.5 6.5 1 11.1 2.4 13.7 4.2s3.9 4.2 3.9 7.3c0 6.2-5.5 9.4-16.5 9.4-10.6 0-15.9-3-15.9-8.9 0-4 2.7-6.9 8.1-8.6-3.2-1.2-4.9-2.8-4.9-4.6 0-1.9 1.6-3.6 4.9-5.2-3.9-2.3-5.8-5.5-5.8-9.7 0-3.5 1.3-6.4 3.8-8.8 2.6-2.4 5.9-3.7 10-3.7 3.7.1 6.8 1.2 9.1 3.4zm-11.1 30.3c-5.2 1-7.8 2.9-7.8 5.7 0 3.2 3.1 4.8 9.2 4.8 7 0 10.6-1.5 10.6-4.5 0-1.8-1.6-3.3-5-4.5-3.4-1.3-5.7-1.7-7-1.5zm1.9-28.4c-2.3 0-4.2.8-5.7 2.4-1.2 1.4-1.9 3-1.9 4.9 0 2 .7 3.6 2.1 4.9 1.5 1.3 3.3 1.9 5.5 1.9 4.9 0 7.4-2.3 7.4-6.9 0-4.7-2.5-7.2-7.4-7.2z"/><use xlink:href="#D"/><path d="M598.1 324c3.4-4.4 7.2-6.6 11.3-6.6 2.3 0 3.5 1.1 3.5 3.2s-1.5 3.4-4.6 3.7c-3 .4-5.5 1.5-7.3 3.3-1.8 1.9-2.8 3.7-2.8 5.6v20.6c0 2.7-1.1 4.1-3.4 4.1-2.2 0-3.3-1.4-3.3-4.1v-32.4c0-2.7 1.1-4.1 3.4-4.1 2.2 0 3.3 1.3 3.3 3.9l-.1 2.8z"/><use xlink:href="#B" x="491.6"/><use xlink:href="#E"/><path d="M747.9 318.4v-10c0-2.7 1.1-4.1 3.4-4.1 2.2 0 3.3 1.4 3.3 4.1v10h6.5c2.5 0 3.7 1 3.7 3s-1.2 3-3.7 3h-6.4V346c0 2.5.5 3.9 1.4 4.4.5.3 2.1.4 4.5.4 2.5 0 3.7 1 3.7 3s-1.1 3-3.3 3h-4c-3.7 0-6.2-.7-7.5-2.1-1.1-1.4-1.6-3.9-1.6-7.7v-22.7h-5.4c-2.5 0-3.7-1-3.7-3s1.2-3 3.7-3h5.4v.1zm33.6 6.1c3.6-4.8 7.8-7.2 12.7-7.2 7.6 0 11.5 4.4 11.6 13.3v23.2c0 2.7-1.1 4.1-3.4 4.1-2.2 0-3.3-1.4-3.3-4.1v-22c0-5.7-2.1-8.5-6.3-8.5-3.2 0-5.8 1.2-8 3.6s-3.3 4.7-3.3 6.9v19.9c0 2.7-1.1 4.1-3.4 4.1-2.2 0-3.3-1.4-3.3-4.1V304c0-2.7 1.1-4.1 3.4-4.1 2.2 0 3.3 1.4 3.3 4.1v20.5zm37.6 14.7v.7c0 8.3 3.2 12.4 9.6 12.4 4.2 0 7-2 8.3-5.8.7-2.1 1.9-3.2 3.7-3.2 2.2 0 3.2 1 3.2 3 0 2.6-1.4 5.2-4.1 7.8s-6.4 3.9-10.9 3.9c-5.3 0-9.4-1.8-12.3-5.5s-4.4-8.6-4.4-14.8c0-6.1 1.4-11 4.1-14.7s6.7-5.6 11.8-5.6 9 1.6 11.7 4.8 4.1 7.3 4.1 12.4c0 3.1-1.6 4.6-4.8 4.6h-20zm.2-5.9h16.8c.6 0 .9-.3.9-.8.022-2.383-.752-4.707-2.2-6.6-1.5-2-3.6-3-6.5-3-5.3.1-8.3 3.5-9 10.4zm80.9-29.2c0-2.8 1.2-4.2 3.5-4.2s3.5 1.4 3.5 4.2v49.5c0 2.8-1.2 4.2-3.5 4.2s-3.5-1.4-3.5-4.2v-49.5zm50.3 47.6c-3.8 4.1-8 6.1-12.8 6.1-3.9 0-7-1-9.1-3.1s-3.2-4.7-3.2-7.9c0-8.6 6.3-13.2 19-14l6.1-.1v-2.5c0-4.6-2.7-6.9-8-6.9-3.5 0-6.1 1.5-7.8 4.6-.9 1.5-2.2 2.3-3.9 2.3-2.3 0-3.5-1-3.5-3 0-1.4.6-2.9 1.9-4.5 2.8-3.5 7-5.3 12.8-5.3 9.8 0 14.8 4.3 15 13v24.2c0 2.2-1.1 3.3-3.3 3.3s-3.2-1-3.2-3.1v-3.1zm0-14c-7.5.2-12.5 1.1-14.8 2.6-2.4 1.5-3.5 3.6-3.5 6.3 0 3.7 2 5.6 6.1 5.6 3.1 0 5.9-1.1 8.5-3.2 2.5-2.1 3.8-4 3.9-5.6l-.2-5.7z"/><use xlink:href="#C" x="605.1"/><path d="M1025.9 351.9c-2.7 3.9-6.2 5.9-10.6 5.9-4.7 0-8.3-1.9-10.7-5.8-2.4-3.8-3.6-8.8-3.6-14.9 0-6 1.3-10.8 4-14.4s6.1-5.4 10.5-5.4c4.3 0 7.8 2 10.6 6.1V304c0-2.7 1.1-4.1 3.4-4.1 2.2 0 3.3 1.4 3.3 4.1v50.5c0 2.3-1.1 3.4-3.4 3.4-2.2 0-3.3-1-3.3-3.1l-.2-2.9zm0-18.4c0-2.1-.9-4.4-2.6-6.7-1.8-2.3-4-3.5-6.9-3.5-5.7 0-8.5 4.7-8.5 14 0 9.7 2.8 14.5 8.3 14.5 2.8 0 5.1-1 6.9-3.1s2.8-4.3 2.8-6.6v-8.6z"/><use xlink:href="#B" x="945.4"/><use xlink:href="#D" x="567.2"/><path d="M1215 351.9c-2.7 3.9-6.2 5.9-10.6 5.9-4.7 0-8.3-1.9-10.7-5.8-2.4-3.8-3.6-8.8-3.6-14.9 0-6 1.3-10.8 3.9-14.4s6.1-5.4 10.4-5.4 7.8 2 10.6 6.1V304c0-2.7 1.1-4.1 3.4-4.1 2.2 0 3.3 1.4 3.3 4.1v50.5c0 2.3-1.1 3.4-3.4 3.4-2.2 0-3.3-1-3.3-3.1v-2.9zm0-18.4c0-2.1-.9-4.4-2.6-6.7-1.8-2.3-4.1-3.5-6.9-3.5-5.7 0-8.5 4.7-8.5 14 0 9.7 2.8 14.5 8.3 14.5 2.8 0 5.1-1 6.9-3.1s2.8-4.3 2.8-6.6v-8.6zm26-9.5c3.4-4.4 7.2-6.6 11.3-6.6 2.3 0 3.5 1.1 3.5 3.2s-1.5 3.4-4.6 3.7c-3.1.4-5.5 1.5-7.3 3.3-1.8 1.9-2.8 3.7-2.8 5.6v20.6c0 2.7-1.1 4.1-3.4 4.1-2.2 0-3.3-1.4-3.3-4.1v-32.4c0-2.7 1.1-4.1 3.4-4.1 2.2 0 3.3 1.3 3.3 3.9l-.1 2.8zm31.9 15.2v.7c.1 8.3 3.2 12.4 9.6 12.4 4.2 0 7-2 8.3-5.8.7-2.1 1.9-3.2 3.7-3.2 2.2 0 3.2 1 3.2 3 0 2.6-1.4 5.2-4.1 7.8s-6.4 3.9-10.9 3.9c-5.3 0-9.4-1.8-12.3-5.5s-4.4-8.6-4.4-14.8c0-6.1 1.4-11 4.1-14.7s6.7-5.6 11.8-5.6 9 1.6 11.7 4.8 4.1 7.3 4.1 12.4c0 3.1-1.6 4.6-4.8 4.6h-20zm.2-5.9h16.8c.6 0 .9-.3.9-.8.02-2.383-.75-4.707-2.2-6.6-1.4-2-3.6-3-6.5-3-5.3.1-8.3 3.5-9 10.4zm55.5 18.4c-3.8 4.1-8.1 6.1-12.8 6.1-3.9 0-7-1-9.1-3.1s-3.2-4.7-3.2-7.9c0-8.6 6.3-13.2 19-14l6.1-.1v-2.5c0-4.6-2.7-6.9-8-6.9-3.4 0-6.1 1.5-7.8 4.6-.9 1.5-2.2 2.3-3.9 2.3-2.3 0-3.5-1-3.5-3 0-1.4.6-2.9 1.9-4.5 2.8-3.5 7-5.3 12.8-5.3 9.8 0 14.8 4.3 15 13v24.2c0 2.2-1.1 3.3-3.3 3.3s-3.2-1-3.2-3.1v-3.1zm0-14c-7.5.2-12.5 1.1-14.8 2.6-2.4 1.5-3.6 3.6-3.6 6.3 0 3.7 2 5.6 6.1 5.6 3.1 0 5.9-1.1 8.5-3.2 2.5-2.1 3.8-4 3.9-5.6l-.1-5.7z"/><use xlink:href="#E" x="680.7"/><path d="M1410.5 346.6c0 3.3-1.2 6-3.7 8.1s-6.1 3.1-10.9 3.1c-5 0-8.9-1.1-11.7-3.3s-4.2-4.5-4.2-7c0-2 1.1-3 3.3-3 1.4 0 2.9 1.2 4.6 3.7s4.3 3.7 7.8 3.7c5 0 7.5-1.8 7.5-5.3 0-2.2-1.7-4-5.2-5.4l-7.9-3.1c-6.2-2.4-9.4-5.8-9.4-10.2 0-3.2 1.3-5.8 3.9-7.8s5.9-3 10-3c4.3 0 7.8 1.1 10.5 3.2s4 4.2 4 6.3c0 1.9-1.1 2.9-3.2 2.9-1.6 0-3-1.1-4.4-3.2-1.4-2.2-3.6-3.2-6.8-3.2-4.5 0-6.8 1.6-6.8 4.8 0 2.1 1.8 3.8 5.5 5.2l8.2 3.1c6 2.3 8.9 5.8 8.9 10.4zm13.3-2.3c1.5 0 2.7.5 3.8 1.6s1.6 2.4 1.6 3.8a5.29 5.29 0 0 1-1.6 3.9c-1.1 1.1-2.4 1.6-3.8 1.6-1.6 0-3-.6-4.1-1.8-.9-1.1-1.4-2.3-1.4-3.8s.5-2.7 1.6-3.8c1-1 2.3-1.5 3.9-1.5z"/></g><defs ><path id="B" d="M147.7 317.3c4.8 0 8.6 1.7 11.5 5.1s4.4 8.5 4.4 15.2c0 13.4-5.4 20.2-16.2 20.2s-16.2-6.8-16.2-20.2c0-13.5 5.5-20.3 16.5-20.3zm-.4 6.1c-6.2 0-9.2 5.1-9.2 15.4 0 8.7 3.1 13.1 9.3 13.1s9.2-4.7 9.2-14c0-9.7-3.1-14.5-9.3-14.5z"/><path id="C" d="M365.5 324.5c3.6-4.8 7.8-7.2 12.7-7.2 7.6 0 11.5 4.4 11.6 13.3v23.2c0 2.7-1.1 4.1-3.4 4.1-2.2 0-3.3-1.4-3.3-4.1v-22c0-5.7-2.1-8.5-6.3-8.5-3.2 0-5.8 1.2-8 3.6s-3.3 4.7-3.3 6.9v20c0 2.7-1.1 4.1-3.4 4.1-2.2 0-3.3-1.4-3.3-4.1v-32.7c0-2.5 1.1-3.8 3.3-3.8 2.3 0 3.4 1.2 3.4 3.7v3.5z"/><path id="D" d="M559.7 318.4v-9.3c0-5.3 2.9-8 8.7-8.1h4.7c2.3 0 3.4 1 3.4 3s-1.1 3-3.4 3h-2.6c-2.7 0-4 1.3-4.1 3.9v7.5h6.8c2.5 0 3.7 1 3.7 3s-1.2 3-3.7 3h-6.8v29.4c0 2.7-1.1 4.1-3.4 4.1-2.2 0-3.3-1.4-3.3-4.1v-29.4h-6c-2.5 0-3.7-1-3.7-3s1.2-3 3.7-3h6z"/><path id="E" d="M679.2 322.2c1.9-3.2 4.2-4.9 6.9-4.9 4.5 0 6.8 3.4 6.9 10.2v26.7c0 2.5-1.1 3.7-3.2 3.7s-3.1-1.2-3.1-3.7V328c0-3.5-.7-5.3-2.2-5.3-1.3 0-2.4.8-3.2 2.5s-1.3 3-1.3 4v25c0 2.5-1.1 3.7-3.2 3.7s-3.1-1.2-3.1-3.7v-25.7c0-3.9-.7-5.8-2.1-5.8-1 0-2 .8-3.1 2.4s-1.7 3-1.7 4.4v24.8c0 2.5-1.1 3.7-3.2 3.7s-3.1-1.2-3.1-3.7v-33.8c0-2 1.1-3 3.2-3s3.1.9 3.1 2.7v1.8c2.1-3.1 4.3-4.7 6.8-4.7 2.8 0 4.7 1.6 5.6 4.9z"/></defs></svg>