<svg xmlns="http://www.w3.org/2000/svg" xmlns:xlink="http://www.w3.org/1999/xlink" viewBox="0 0 1500 500" fill-rule="evenodd" stroke-linejoin="round" stroke-miterlimit="2"><g opacity=".95" fill="#fff" fill-rule="nonzero"><path d="M105.2 153v2.4c0 3.2-1.9 4.8-5.6 4.8-3.6 0-5.4-1.6-5.4-4.8V153H60.7v2.4c0 3.2-1.9 4.8-5.6 4.8s-5.6-1.6-5.6-4.8V153H18.6c-3.7 0-5.6-1.6-5.6-4.9s1.9-4.9 5.6-4.9h30.9v-4.5c0-3.6 1.9-5.4 5.6-5.4s5.6 1.8 5.6 5.4v4.5h33.5v-4.5c0-3.6 1.9-5.4 5.6-5.4 3.6 0 5.5 1.8 5.5 5.4v4.5h32c3.7 0 5.6 1.6 5.6 4.9s-1.9 4.9-5.6 4.9h-32.1zm-40.4 63.4h50.1c6 0 9.1 1.8 9.1 5.5 0 4.6-7.1 11.4-21.2 20.7-14.2 9.2-31.7 15.6-52.6 19.3l-20.1 2.8-3.6.3c-3.6 0-5.5-1.8-5.5-5.3 0-3.4 2.4-5.3 7.1-5.6 14.7-.7 28-2.8 39.9-6.1l-.4-.3-7.3-4.9c-6-3.4-8.9-6-8.9-7.5 0-3.2 2-4.8 5.9-4.8 2.9 0 10.6 4.3 23.2 13 6-2.7 12-5.9 17.7-9.5s8.7-5.9 8.7-6.8c0-.7-.5-1.1-1.4-1.1H54c-12.9 10.1-21.5 15.1-25.6 15.1-3.5 0-5.3-1.9-5.3-5.6 0-2.2 3.3-4.9 9.9-8.1 10-4.8 18.3-11 25-18.6H31.2c-3.4-.1-5.1 1.5-5 4.9v7c0 3.9-1.9 5.9-5.7 5.9-3.6 0-5.4-1.9-5.4-5.9v-8.4c-.7-9.6 3.8-14 13.4-13.4h99.1c9.7-.6 14.2 3.8 13.4 13.4v7.6c0 4.6-1.8 6.8-5.4 6.8-3.7 0-5.6-1.9-5.6-5.9v-7.4c0-3.4-1.7-5-5-4.9H72.1l-7.3 7.8zm-30.5-53.9h87.3c8-.6 11.7 3.1 11.2 10.9v7.5c.6 7.8-3.2 11.4-11.2 10.9H34.3c-8 .6-11.7-3.1-11.2-10.9v-7.5c-.5-7.9 3.2-11.5 11.2-10.9zm21.9 21.2v-13.1H37.5c-2.6.1-4 1.4-4.1 4v5c.1 2.6 1.4 4 4.1 4l18.7.1zm32.7 0v-13.1H66.1v13.1h22.8zm9.8 0h19.7c2.6-.1 3.9-1.4 3.9-4v-5c0-2.6-1.3-4-3.9-4H98.7v13zM230.5 160c-3 20.6-6.9 36.7-11.8 48.4s-10.1 20.4-15.8 26.2c-5.6 5.8-11.7 8.7-18.1 8.7-6.8 0-12.5-3.4-17.2-10.2s-7.1-15.4-7.1-25.7c0-16.5 6-30.6 17.9-42.5 12-11.8 27.2-17.7 45.9-17.7 17.4 0 31.2 4.9 41.4 14.8s15.3 22.4 15.3 37.7c0 22.1-9.8 38-29.3 47.6-10.7 5.2-19.5 7.8-26.2 7.8-4.6 0-6.8-2.3-6.8-6.8 0-3.6 2.8-5.9 8.4-6.7 12.2-1.9 22-6.7 29.5-14.2s11.2-17.1 11.2-28.7c0-10.6-3.2-19.3-9.6-26.2-6.4-6.8-14.9-11-25.4-12.4h-.7l-1.6-.1zm-12.4 0c-14 1.6-24.9 6.9-32.9 15.8-8 9-12 19.7-12 32 0 6.7 1.3 12 3.8 15.8s5.3 5.7 8.4 5.7c5.8 0 12-6.4 18.8-19.3 6.6-12.8 11.3-29.5 13.9-50zm191.7 99.5h-90.1c-10.8.6-15.9-4.6-15.2-15.5v-89.6c-.6-10.9 4.5-16.1 15.2-15.5h90.1c10.8-.6 15.9 4.6 15.2 15.5V244c.5 10.9-4.5 16.1-15.2 15.5zm-4.1-11.2c4.9 0 7.4-2.4 7.4-7.3v-83.6c0-4.9-2.5-7.4-7.4-7.4h-82c-4.9 0-7.4 2.5-7.4 7.4V241c0 4.8 2.5 7.3 7.4 7.3h82zm-37.5-75.5v17.9h22.1c4 0 6 1.8 6 5.3 0 3.4-2 5.2-6 5.2h-22.1V225h32.7c4.1 0 6.1 1.8 6.1 5.3s-2.1 5.3-6.1 5.3h-73c-4 0-6-1.8-6-5.3s2-5.3 6-5.3h28.9v-23.9h-20.4c-4 0-6-1.8-6-5.3 0-3.4 2-5.2 6-5.2h20.4v-17.9h-25c-4 0-6-1.8-6-5.3s2-5.3 6-5.3h64.3c4.1 0 6.1 1.8 6.1 5.3s-2.1 5.3-6.1 5.3l-27.9.1zm18.9 31.6c1.8 0 3.7 1.6 5.8 4.7s3.1 5.5 3.1 7.1c0 3.1-1.9 4.6-5.7 4.6-2 0-3.6-1.2-4.8-3.5l-3.1-5.6c-.6-1-.8-1.9-.8-2.5 0-3.3 1.8-4.8 5.5-4.8zm98.2-29.4c-3.8 15.3-8.2 29.7-13.2 43.4s-9.2 23.8-12.8 30.3c-1.8 3.3-3.9 4.9-6.4 4.9-4.1 0-6.1-2.1-6.1-6.1 0-1.4.8-3.5 2.4-6.4 3.7-6.5 8-16.4 12.8-29.5 4.8-13.2 8.4-24.9 11-35.2l-22.8 3.4c-3.8 0-5.7-2-5.7-6 0-3.6 2.9-5.8 8.7-6.6l22.8-2.9.1-.4 4.3-21.5c.8-4.2 2.9-6.3 6.1-6.3 3.9 0 5.9 1.9 5.9 5.6 0 2.4-1.3 9.6-4 21.5l10.3-.4c11.4 0 19.3 2.8 23.5 8.2 4.2 5.5 6.3 14.3 6.3 26.5 0 19.2-2.5 34.3-7.4 45.5-4.9 11.1-12 16.7-21.1 16.7-5.7 0-11.2-1.9-16.5-5.6s-8-7-8-9.8c0-4.3 2-6.4 6-6.4 1.5 0 3.5 1.1 6 3.2 4.4 3.5 8.3 5.3 11.9 5.3 3.4 0 6.4-2.1 9-6.4s4.5-10 5.7-17.2c1.3-7.2 1.9-16.1 1.9-26.6 0-9.2-1.6-15.2-4.8-17.9-2.7-2.4-7-3.6-13-3.6l-12.9.3zm55.6-19.5c4.4 0 10.3 9 17.7 26.9 7.5 17.9 11.2 30.3 11.2 37.1 0 4.8-2.3 7.3-7 7.3-3.3 0-5.5-2.5-6.6-7.5-4.4-19-9.4-33.7-15.1-44.1-4.3-7.9-6.4-12.6-6.4-14.1 0-3.8 2.1-5.6 6.2-5.6zm77.2 45c16-9.5 31.4-14.2 46.1-14.2 27.2 0 40.8 10.6 40.8 31.7 0 13.6-6 23.8-18.1 30.6s-30.2 10.3-54.4 10.3c-6.3 0-9.5-2.4-9.5-7.1 0-4.1 2.5-6.1 7.4-6.1l10.8.1c15.4 0 27.5-2.5 36.3-7.5s13.3-11.8 13.3-20.5c0-13-8.5-19.5-25.5-19.5-16.8 0-33 6.3-48.5 19-2.1 1.8-4.1 2.6-5.9 2.6-4.7 0-6.8-2-6.6-6l3.1-47.3c.4-5.1 2.6-7.7 6.6-7.7 4.8 0 7.1 1.8 6.8 5.3l-2.7 36.3zm15.5-50.2h-7.1c-5.6 0-8.4-1.9-8.4-5.7 0-4.6 3.3-6.8 10-6.8 17.6 0 33.1 1.4 46.5 4.2 6.9 1.4 10.3 3.9 10.3 7.4 0 4.5-2.3 6.7-7 6.7l-4.5-.6c-12.9-2.8-26.2-4.5-39.8-5.2zm206.2 89.2c4.8 0 7.1 2.1 7.1 6.4 0 2.5-1.1 4.4-3.3 5.7s-6.5 2.2-13 2.8-15.4.8-26.9.8c-20.2 0-35.3-2.5-45.4-7.6-10-5.1-15.1-12.6-15.1-22.7 0-7 1.4-12.6 4.2-17 2.8-4.3 5.7-6.5 8.8-6.5 4.2 0 6.3 1.9 6.3 5.6 0 1.1-.9 3.2-2.8 6.3-2 3.1-2.9 6.2-2.9 9.5 0 7 3.9 11.9 11.6 14.8s19.3 4.3 34.8 4.3l36.6-2.4zM789.1 147c18.1 0 32.7 1.7 44 5 4.4 1.3 6.6 3.6 6.6 6.8 0 4.8-2.4 7.3-7.1 7.3-1.8 0-3.9-.3-6.4-1-13-3.4-27.5-5-43.4-5-6 0-12.9.5-20.9 1.5l-2.8.3c-3.9 0-5.9-1.9-5.9-5.9s2.7-6.4 8-7.4c5-1.1 14.3-1.6 27.9-1.6z"/><use xlink:href="#B"/><path d="M1035.7 140.8c4.1 0 6.1 1.9 6.1 5.7l-.3 2.8c-3.5 18.2-5.3 38-5.3 59.2 0 16.9 1 30.1 3.1 39.4l.7 5.2c0 3.9-2.1 5.9-6.3 5.9-2.6 0-4.7-1.4-6.2-4.2s-2.7-8.1-3.4-15.8c-.8-7.7-1.1-18-1.1-30.7 0-14.1 1.6-32.5 4.8-55.3 1.1-8.1 3.7-12.2 7.9-12.2zm63.8 36.5H1060c-4.9 0-7.4-2.1-7.4-6.1s2.2-6.1 6.6-6.1h40.2l-.6-17.6c0-4.8 2.2-7.1 6.7-7.1 4.3 0 6.4 2.4 6.4 7.1l-.1 7.1.1 4.9.2 5.5h17c4.9 0 7.4 2.1 7.4 6.1 0 4.1-2.2 6.1-6.7 6.1h-17.6l.1 2.6.6 39.7c16.8 9 25.1 15.7 25.1 20 0 4.5-2.2 6.7-6.6 6.7-1.5 0-3.8-1.4-6.8-4.1-2.8-2.3-6.7-4.9-11.7-7.7l.2 3.6c0 14.7-9.9 22.1-29.6 22.1-20.1 0-30.2-7.7-30.2-23.2 0-7.1 2.6-12.9 7.7-17.3 5.1-4.5 12.3-6.7 21.6-6.7 5.1 0 11 .8 17.7 2.5l-.8-38.1zm1 50.2c-7.2-2.1-13.1-3.2-17.9-3.2-11.2 0-16.8 4.1-16.8 12.3 0 7.8 5.7 11.7 17 11.7 11.8 0 17.7-5 17.7-14.9v-5.9zm15.8-87.1c0-3.4 1.6-5.2 4.8-5.2 3.3 0 4.9 1.7 4.9 5.2V153c0 3.4-1.6 5.2-4.9 5.2-3.2 0-4.8-1.7-4.8-5.2v-12.6zm15.7 0c0-3.4 1.6-5.2 4.9-5.2s4.9 1.7 4.9 5.2V153c0 3.4-1.6 5.2-4.9 5.2s-4.9-1.7-4.9-5.2v-12.6z"/><use xlink:href="#B" x="285.9"/><path d="M1323.5 140c4.1 0 6.1 1.9 6.1 5.7l-.3 2.6c-3.5 17.9-5.3 37.6-5.3 59.2 0 17.3 1 30.5 3.1 39.6l.7 4.9c0 3.9-2.1 5.9-6.3 5.9-2.6 0-4.7-1.4-6.2-4.2s-2.7-8.1-3.4-15.8c-.8-7.7-1.1-18-1.1-30.7 0-14 1.6-32.3 4.8-55.1 1-8.1 3.7-12.1 7.9-12.1zm64.6 35.5h-39.5c-4.8 0-7.3-2.1-7.3-6.1s2.2-6.1 6.6-6.1h40.1l-.6-17.6c0-4.8 2.2-7.1 6.7-7.1 4.3 0 6.4 2.3 6.4 7l-.1 7.4.3 10.3h17c4.9 0 7.4 2.1 7.4 6.1 0 4.1-2.2 6.1-6.6 6.1h-17.6v2.6l.7 39.8c16.8 8.9 25.1 15.6 25.1 19.8 0 4.5-2.2 6.7-6.6 6.7-1.4 0-3.6-1.3-6.6-3.8s-7-5.2-11.9-8v3.9c-.2 14.4-10.1 21.6-29.6 21.6-20.1 0-30.2-7.7-30.2-23.2 0-7.1 2.6-12.9 7.7-17.3 5.1-4.5 12.3-6.7 21.6-6.7 5.1 0 11.1.8 17.9 2.5l-.9-37.9zm1.1 50.2c-7.2-2.1-13.2-3.2-18-3.2-11.2 0-16.8 4.1-16.8 12.3 0 7.8 5.7 11.7 17.2 11.7 10.7 0 16.5-3.8 17.3-11.4l.3-9.4zm75.7-6c6.1 0 11.3 2.3 15.6 6.8 4.4 4.5 6.6 9.8 6.6 15.9 0 6.3-2.3 11.7-6.8 16.1s-9.8 6.6-15.8 6.6c-6.3 0-11.7-2.3-16.1-6.8s-6.6-9.8-6.6-16c0-6.1 2.2-11.4 6.7-15.8 4.5-4.6 10-6.8 16.4-6.8zm-.7 8.5c-3.9 0-7.3 1.5-10.2 4.6-2.4 2.7-3.6 5.9-3.6 9.5 0 4 1.4 7.4 4.2 10.1s6.1 4 9.9 4c4.2 0 7.7-1.6 10.5-4.8 2.4-2.6 3.6-5.8 3.6-9.5s-1.4-7-4.1-9.8c-2.8-2.7-6.2-4.1-10.3-4.1z"/></g><defs ><path id="B" d="M902.4 210.1c11.7-12.3 21.8-18.4 30.2-18.4 10.6 0 16.1 6 16.5 18l.7 22.9c.2 8.9 3.9 13.4 11.2 13.4 13.2 0 21.5-12.5 24.8-37.6.7-5.6 3-8.4 6.7-8.4 4.4 0 6.6 2.4 6.6 7.1 0 5.2-1.5 12.6-4.5 22.3s-7.3 16.9-13.1 21.9c-5.8 4.9-12.5 7.4-20.2 7.4-15.8 0-23.9-7.4-24.3-22.2l-.6-23.5c-.2-5.9-2.4-8.8-6.7-8.8-9.2 0-18.8 6.7-28.6 20-4.1 5.6-8.6 14.9-13.4 28.1-1.5 4.1-3.7 6.1-6.6 6.1-4.7 0-7-2.3-7-7 0-1.3 1.1-4.8 3.2-10.3l2.5-6.4c8-22.4 16.3-42.9 24.8-61.4s13.8-28.9 15.7-31.1c1.5-1.5 3.2-2.2 5-2.2 4.3 0 6.4 2 6.4 5.9 0 1.7-1.7 5.5-5 11.6-5.8 9.7-13.9 27.3-24.3 52.6z"/></defs></svg>