<?xml version="1.0" encoding="utf-8"?>
<!-- Generator: Adobe Illustrator 25.2.0, SVG Export Plug-In . SVG Version: 6.00 Build 0)  -->
<svg version="1.1" id="Ebene_1" xmlns="http://www.w3.org/2000/svg" xmlns:xlink="http://www.w3.org/1999/xlink" x="0px" y="0px"
	 viewBox="0 0 804.8 283.6" style="enable-background:new 0 0 804.8 283.6;" xml:space="preserve">
<style type="text/css">
	.st0{fill:#FF9A9A;}
	.st1{fill:#FFC694;}
	.st2{fill:#FFFF93;}
	.st3{fill:#96FF96;}
	.st4{fill:#A0A0FF;}
	.st5{fill:#FF93F8;}
	.st6{fill:#FFFFFF;}
</style>
<polygon class="st0" points="307.2,209.6 307.2,162.2 259.8,162.2 259.8,209.6 259.8,257 307.2,257 354.6,257 354.6,209.6 "/>
<polygon class="st1" points="401.9,209.6 401.9,162.2 354.5,162.2 354.5,209.6 354.5,257 401.9,257 449.3,257 449.3,209.6 "/>
<polygon class="st2" points="496.4,162.2 449,162.2 449,209.6 449,257 496.4,257 543.8,257 543.8,209.6 543.8,162.2 "/>
<polygon class="st3" points="589.1,162.2 589.1,114.8 541.7,114.8 541.7,162.2 541.7,209.6 541.7,257 589.1,257 589.1,257 
	636.5,257 636.5,209.6 636.5,162.2 "/>
<polygon class="st4" points="683.6,162.2 683.6,209.6 636.2,209.6 636.2,257 683.6,257 731,257 731,209.6 731,162.2 "/>
<polygon class="st5" points="730.8,162.2 730.8,209.6 730.8,257 778.2,257 778.2,209.6 778.2,162.2 "/>
<polygon class="st6" points="355,115.8 355,68.4 355,21 307.6,21 307.2,68.4 307.2,115.8 259.8,115.8 259.8,68.4 212.4,68.4 
	165,68.4 117.6,68.4 117.6,115.8 70.2,115.8 70.2,68.4 22.8,68.4 22.8,115.8 22.8,163.2 22.8,210.6 70.2,210.6 70.2,163.2 
	117.6,163.2 165,163.2 165,115.8 212.4,115.8 212.4,163.2 259.8,163.2 307.2,163.2 355,163.2 "/>
</svg>
