<?xml version="1.0" encoding="utf-8"?>
<!-- Generator: Adobe Illustrator 25.0.0, SVG Export Plug-In . SVG Version: 6.00 Build 0)  -->
<svg version="1.1" id="Ebene_1" xmlns="http://www.w3.org/2000/svg" xmlns:xlink="http://www.w3.org/1999/xlink" x="0px" y="0px"
	 viewBox="0 0 1500 500" style="enable-background:new 0 0 1500 500;" xml:space="preserve">
<style type="text/css">
	.st0{fill:none;}
	.st1{opacity:0.95;}
	.st2{fill:#FFFFFF;}
	.st3{opacity:0.67;}
</style>
<rect x="29.1" y="18" class="st0" width="1449" height="447"/>
<g>
	<g class="st1">
		<path class="st2" d="M105.2,153v2.4c0,3.2-1.9,4.8-5.6,4.8c-3.6,0-5.4-1.6-5.4-4.8V153H60.7v2.4c0,3.2-1.9,4.8-5.6,4.8
			s-5.6-1.6-5.6-4.8V153H18.6c-3.7,0-5.6-1.6-5.6-4.9s1.9-4.9,5.6-4.9h30.9v-4.5c0-3.6,1.9-5.4,5.6-5.4s5.6,1.8,5.6,5.4v4.5h33.5
			v-4.5c0-3.6,1.9-5.4,5.6-5.4c3.6,0,5.5,1.8,5.5,5.4v4.5h32c3.7,0,5.6,1.6,5.6,4.9s-1.9,4.9-5.6,4.9H105.2z M64.8,216.4h50.1
			c6,0,9.1,1.8,9.1,5.5c0,4.6-7.1,11.4-21.2,20.7c-14.2,9.2-31.7,15.6-52.6,19.3l-20.1,2.8l-3.6,0.3c-3.6,0-5.5-1.8-5.5-5.3
			c0-3.4,2.4-5.3,7.1-5.6c14.7-0.7,28-2.8,39.9-6.1l-0.4-0.3l-7.3-4.9c-6-3.4-8.9-6-8.9-7.5c0-3.2,2-4.8,5.9-4.8
			c2.9,0,10.6,4.3,23.2,13c6-2.7,12-5.9,17.7-9.5s8.7-5.9,8.7-6.8c0-0.7-0.5-1.1-1.4-1.1H54c-12.9,10.1-21.5,15.1-25.6,15.1
			c-3.5,0-5.3-1.9-5.3-5.6c0-2.2,3.3-4.9,9.9-8.1c10-4.8,18.3-11,25-18.6H31.2c-3.4-0.1-5.1,1.5-5,4.9v7c0,3.9-1.9,5.9-5.7,5.9
			c-3.6,0-5.4-1.9-5.4-5.9v-8.4c-0.7-9.6,3.8-14,13.4-13.4h99.1c9.7-0.6,14.2,3.8,13.4,13.4v7.6c0,4.6-1.8,6.8-5.4,6.8
			c-3.7,0-5.6-1.9-5.6-5.9v-7.4c0-3.4-1.7-5-5-4.9H72.1L64.8,216.4z M34.3,162.5h87.3c8-0.6,11.7,3.1,11.2,10.9v7.5
			c0.6,7.8-3.2,11.4-11.2,10.9H34.3c-8,0.6-11.7-3.1-11.2-10.9v-7.5C22.6,165.5,26.3,161.9,34.3,162.5z M56.2,183.7v-13.1H37.5
			c-2.6,0.1-4,1.4-4.1,4v5c0.1,2.6,1.4,4,4.1,4L56.2,183.7L56.2,183.7z M88.9,183.7v-13.1H66.1v13.1H88.9z M98.7,183.7h19.7
			c2.6-0.1,3.9-1.4,3.9-4v-5c0-2.6-1.3-4-3.9-4H98.7V183.7z"/>
		<path class="st2" d="M230.5,160c-3,20.6-6.9,36.7-11.8,48.4c-4.9,11.7-10.1,20.4-15.8,26.2c-5.6,5.8-11.7,8.7-18.1,8.7
			c-6.8,0-12.5-3.4-17.2-10.2s-7.1-15.4-7.1-25.7c0-16.5,6-30.6,17.9-42.5c12-11.8,27.2-17.7,45.9-17.7c17.4,0,31.2,4.9,41.4,14.8
			c10.2,9.9,15.3,22.4,15.3,37.7c0,22.1-9.8,38-29.3,47.6c-10.7,5.2-19.5,7.8-26.2,7.8c-4.6,0-6.8-2.3-6.8-6.8
			c0-3.6,2.8-5.9,8.4-6.7c12.2-1.9,22-6.7,29.5-14.2s11.2-17.1,11.2-28.7c0-10.6-3.2-19.3-9.6-26.2c-6.4-6.8-14.9-11-25.4-12.4h-0.7
			L230.5,160z M218.1,160c-14,1.6-24.9,6.9-32.9,15.8c-8,9-12,19.7-12,32c0,6.7,1.3,12,3.8,15.8s5.3,5.7,8.4,5.7
			c5.8,0,12-6.4,18.8-19.3C210.8,197.2,215.5,180.5,218.1,160z"/>
		<path class="st2" d="M409.8,259.5h-90.1c-10.8,0.6-15.9-4.6-15.2-15.5v-89.6c-0.6-10.9,4.5-16.1,15.2-15.5h90.1
			c10.8-0.6,15.9,4.6,15.2,15.5V244C425.5,254.9,420.5,260.1,409.8,259.5z M405.7,248.3c4.9,0,7.4-2.4,7.4-7.3v-83.6
			c0-4.9-2.5-7.4-7.4-7.4h-82c-4.9,0-7.4,2.5-7.4,7.4V241c0,4.8,2.5,7.3,7.4,7.3H405.7L405.7,248.3z M368.2,172.8v17.9h22.1
			c4,0,6,1.8,6,5.3c0,3.4-2,5.2-6,5.2h-22.1V225h32.7c4.1,0,6.1,1.8,6.1,5.3c0,3.5-2.1,5.3-6.1,5.3h-73c-4,0-6-1.8-6-5.3
			c0-3.5,2-5.3,6-5.3h28.9v-23.9h-20.4c-4,0-6-1.8-6-5.3c0-3.4,2-5.2,6-5.2h20.4v-17.9h-25c-4,0-6-1.8-6-5.3s2-5.3,6-5.3h64.3
			c4.1,0,6.1,1.8,6.1,5.3s-2.1,5.3-6.1,5.3L368.2,172.8L368.2,172.8z M387.1,204.4c1.8,0,3.7,1.6,5.8,4.7c2.1,3.1,3.1,5.5,3.1,7.1
			c0,3.1-1.9,4.6-5.7,4.6c-2,0-3.6-1.2-4.8-3.5c-1.3-2.3-2.3-4.2-3.1-5.6c-0.6-1-0.8-1.9-0.8-2.5
			C381.6,205.9,383.4,204.4,387.1,204.4z"/>
		<path class="st2" d="M485.3,175c-3.8,15.3-8.2,29.7-13.2,43.4c-5,13.7-9.2,23.8-12.8,30.3c-1.8,3.3-3.9,4.9-6.4,4.9
			c-4.1,0-6.1-2.1-6.1-6.1c0-1.4,0.8-3.5,2.4-6.4c3.7-6.5,8-16.4,12.8-29.5c4.8-13.2,8.4-24.9,11-35.2l-22.8,3.4c-3.8,0-5.7-2-5.7-6
			c0-3.6,2.9-5.8,8.7-6.6l22.8-2.9l0.1-0.4l4.3-21.5c0.8-4.2,2.9-6.3,6.1-6.3c3.9,0,5.9,1.9,5.9,5.6c0,2.4-1.3,9.6-4,21.5l10.3-0.4
			c11.4,0,19.3,2.8,23.5,8.2c4.2,5.5,6.3,14.3,6.3,26.5c0,19.2-2.5,34.3-7.4,45.5c-4.9,11.1-12,16.7-21.1,16.7
			c-5.7,0-11.2-1.9-16.5-5.6s-8-7-8-9.8c0-4.3,2-6.4,6-6.4c1.5,0,3.5,1.1,6,3.2c4.4,3.5,8.3,5.3,11.9,5.3c3.4,0,6.4-2.1,9-6.4
			c2.6-4.3,4.5-10,5.7-17.2c1.3-7.2,1.9-16.1,1.9-26.6c0-9.2-1.6-15.2-4.8-17.9c-2.7-2.4-7-3.6-13-3.6L485.3,175z M540.9,155.5
			c4.4,0,10.3,9,17.7,26.9c7.5,17.9,11.2,30.3,11.2,37.1c0,4.8-2.3,7.3-7,7.3c-3.3,0-5.5-2.5-6.6-7.5c-4.4-19-9.4-33.7-15.1-44.1
			c-4.3-7.9-6.4-12.6-6.4-14.1C534.7,157.3,536.8,155.5,540.9,155.5z"/>
		<path class="st2" d="M618.1,200.5c16-9.5,31.4-14.2,46.1-14.2c27.2,0,40.8,10.6,40.8,31.7c0,13.6-6,23.8-18.1,30.6
			s-30.2,10.3-54.4,10.3c-6.3,0-9.5-2.4-9.5-7.1c0-4.1,2.5-6.1,7.4-6.1l10.8,0.1c15.4,0,27.5-2.5,36.3-7.5s13.3-11.8,13.3-20.5
			c0-13-8.5-19.5-25.5-19.5c-16.8,0-33,6.3-48.5,19c-2.1,1.8-4.1,2.6-5.9,2.6c-4.7,0-6.8-2-6.6-6l3.1-47.3c0.4-5.1,2.6-7.7,6.6-7.7
			c4.8,0,7.1,1.8,6.8,5.3L618.1,200.5z M633.6,150.3h-7.1c-5.6,0-8.4-1.9-8.4-5.7c0-4.6,3.3-6.8,10-6.8c17.6,0,33.1,1.4,46.5,4.2
			c6.9,1.4,10.3,3.9,10.3,7.4c0,4.5-2.3,6.7-7,6.7l-4.5-0.6C660.5,152.7,647.2,151,633.6,150.3z"/>
		<path class="st2" d="M839.8,239.5c4.8,0,7.1,2.1,7.1,6.4c0,2.5-1.1,4.4-3.3,5.7s-6.5,2.2-13,2.8s-15.4,0.8-26.9,0.8
			c-20.2,0-35.3-2.5-45.4-7.6c-10-5.1-15.1-12.6-15.1-22.7c0-7,1.4-12.6,4.2-17c2.8-4.3,5.7-6.5,8.8-6.5c4.2,0,6.3,1.9,6.3,5.6
			c0,1.1-0.9,3.2-2.8,6.3c-2,3.1-2.9,6.2-2.9,9.5c0,7,3.9,11.9,11.6,14.8c7.7,2.9,19.3,4.3,34.8,4.3L839.8,239.5z M789.1,147
			c18.1,0,32.7,1.7,44,5c4.4,1.3,6.6,3.6,6.6,6.8c0,4.8-2.4,7.3-7.1,7.3c-1.8,0-3.9-0.3-6.4-1c-13-3.4-27.5-5-43.4-5
			c-6,0-12.9,0.5-20.9,1.5l-2.8,0.3c-3.9,0-5.9-1.9-5.9-5.9s2.7-6.4,8-7.4C766.2,147.5,775.5,147,789.1,147z"/>
		<path class="st2" d="M902.4,210.1c11.7-12.3,21.8-18.4,30.2-18.4c10.6,0,16.1,6,16.5,18l0.7,22.9c0.2,8.9,3.9,13.4,11.2,13.4
			c13.2,0,21.5-12.5,24.8-37.6c0.7-5.6,3-8.4,6.7-8.4c4.4,0,6.6,2.4,6.6,7.1c0,5.2-1.5,12.6-4.5,22.3s-7.3,16.9-13.1,21.9
			c-5.8,4.9-12.5,7.4-20.2,7.4c-15.8,0-23.9-7.4-24.3-22.2l-0.6-23.5c-0.2-5.9-2.4-8.8-6.7-8.8c-9.2,0-18.8,6.7-28.6,20
			c-4.1,5.6-8.6,14.9-13.4,28.1c-1.5,4.1-3.7,6.1-6.6,6.1c-4.7,0-7-2.3-7-7c0-1.3,1.1-4.8,3.2-10.3l2.5-6.4
			c8-22.4,16.3-42.9,24.8-61.4s13.8-28.9,15.7-31.1c1.5-1.5,3.2-2.2,5-2.2c4.3,0,6.4,2,6.4,5.9c0,1.7-1.7,5.5-5,11.6
			C920.9,167.2,912.8,184.8,902.4,210.1z"/>
		<path class="st2" d="M1035.7,140.8c4.1,0,6.1,1.9,6.1,5.7l-0.3,2.8c-3.5,18.2-5.3,38-5.3,59.2c0,16.9,1,30.1,3.1,39.4l0.7,5.2
			c0,3.9-2.1,5.9-6.3,5.9c-2.6,0-4.7-1.4-6.2-4.2c-1.5-2.8-2.7-8.1-3.4-15.8c-0.8-7.7-1.1-18-1.1-30.7c0-14.1,1.6-32.5,4.8-55.3
			C1028.9,144.9,1031.5,140.8,1035.7,140.8z M1099.5,177.3H1060c-4.9,0-7.4-2.1-7.4-6.1s2.2-6.1,6.6-6.1h40.2l-0.6-17.6
			c0-4.8,2.2-7.1,6.7-7.1c4.3,0,6.4,2.4,6.4,7.1l-0.1,7.1l0.1,4.9l0.2,5.5h17c4.9,0,7.4,2.1,7.4,6.1c0,4.1-2.2,6.1-6.7,6.1h-17.6
			l0.1,2.6l0.6,39.7c16.8,9,25.1,15.7,25.1,20c0,4.5-2.2,6.7-6.6,6.7c-1.5,0-3.8-1.4-6.8-4.1c-2.8-2.3-6.7-4.9-11.7-7.7l0.2,3.6
			c0,14.7-9.9,22.1-29.6,22.1c-20.1,0-30.2-7.7-30.2-23.2c0-7.1,2.6-12.9,7.7-17.3c5.1-4.5,12.3-6.7,21.6-6.7c5.1,0,11,0.8,17.7,2.5
			L1099.5,177.3z M1100.5,227.5c-7.2-2.1-13.1-3.2-17.9-3.2c-11.2,0-16.8,4.1-16.8,12.3c0,7.8,5.7,11.7,17,11.7
			c11.8,0,17.7-5,17.7-14.9V227.5z M1116.3,140.4c0-3.4,1.6-5.2,4.8-5.2c3.3,0,4.9,1.7,4.9,5.2V153c0,3.4-1.6,5.2-4.9,5.2
			c-3.2,0-4.8-1.7-4.8-5.2V140.4z M1132,140.4c0-3.4,1.6-5.2,4.9-5.2c3.3,0,4.9,1.7,4.9,5.2V153c0,3.4-1.6,5.2-4.9,5.2
			c-3.3,0-4.9-1.7-4.9-5.2V140.4z"/>
		<path class="st2" d="M1188.3,210.1c11.7-12.3,21.8-18.4,30.2-18.4c10.6,0,16.1,6,16.5,18l0.7,22.9c0.2,8.9,3.9,13.4,11.2,13.4
			c13.2,0,21.5-12.5,24.8-37.6c0.7-5.6,3-8.4,6.7-8.4c4.4,0,6.6,2.4,6.6,7.1c0,5.2-1.5,12.6-4.5,22.3s-7.3,16.9-13.1,21.9
			c-5.8,4.9-12.5,7.4-20.2,7.4c-15.8,0-23.9-7.4-24.3-22.2l-0.6-23.5c-0.2-5.9-2.4-8.8-6.7-8.8c-9.2,0-18.8,6.7-28.6,20
			c-4.1,5.6-8.6,14.9-13.4,28.1c-1.5,4.1-3.7,6.1-6.6,6.1c-4.7,0-7-2.3-7-7c0-1.3,1.1-4.8,3.2-10.3l2.5-6.4
			c8-22.4,16.3-42.9,24.8-61.4s13.8-28.9,15.7-31.1c1.5-1.5,3.2-2.2,5-2.2c4.3,0,6.4,2,6.4,5.9c0,1.7-1.7,5.5-5,11.6
			C1206.8,167.2,1198.7,184.8,1188.3,210.1z"/>
		<path class="st2" d="M1323.5,140c4.1,0,6.1,1.9,6.1,5.7l-0.3,2.6c-3.5,17.9-5.3,37.6-5.3,59.2c0,17.3,1,30.5,3.1,39.6l0.7,4.9
			c0,3.9-2.1,5.9-6.3,5.9c-2.6,0-4.7-1.4-6.2-4.2s-2.7-8.1-3.4-15.8c-0.8-7.7-1.1-18-1.1-30.7c0-14,1.6-32.3,4.8-55.1
			C1316.6,144,1319.3,140,1323.5,140z M1388.1,175.5h-39.5c-4.8,0-7.3-2.1-7.3-6.1s2.2-6.1,6.6-6.1h40.1l-0.6-17.6
			c0-4.8,2.2-7.1,6.7-7.1c4.3,0,6.4,2.3,6.4,7l-0.1,7.4l0.3,10.3h17c4.9,0,7.4,2.1,7.4,6.1c0,4.1-2.2,6.1-6.6,6.1h-17.6v2.6
			l0.7,39.8c16.8,8.9,25.1,15.6,25.1,19.8c0,4.5-2.2,6.7-6.6,6.7c-1.4,0-3.6-1.3-6.6-3.8s-7-5.2-11.9-8v3.9
			c-0.2,14.4-10.1,21.6-29.6,21.6c-20.1,0-30.2-7.7-30.2-23.2c0-7.1,2.6-12.9,7.7-17.3c5.1-4.5,12.3-6.7,21.6-6.7
			c5.1,0,11.1,0.8,17.9,2.5L1388.1,175.5z M1389.2,225.7c-7.2-2.1-13.2-3.2-18-3.2c-11.2,0-16.8,4.1-16.8,12.3
			c0,7.8,5.7,11.7,17.2,11.7c10.7,0,16.5-3.8,17.3-11.4L1389.2,225.7z"/>
		<path class="st2" d="M1464.9,219.7c6.1,0,11.3,2.3,15.6,6.8c4.4,4.5,6.6,9.8,6.6,15.9c0,6.3-2.3,11.7-6.8,16.1
			c-4.5,4.4-9.8,6.6-15.8,6.6c-6.3,0-11.7-2.3-16.1-6.8c-4.4-4.5-6.6-9.8-6.6-16c0-6.1,2.2-11.4,6.7-15.8
			C1453,221.9,1458.5,219.7,1464.9,219.7z M1464.2,228.2c-3.9,0-7.3,1.5-10.2,4.6c-2.4,2.7-3.6,5.9-3.6,9.5c0,4,1.4,7.4,4.2,10.1
			c2.8,2.7,6.1,4,9.9,4c4.2,0,7.7-1.6,10.5-4.8c2.4-2.6,3.6-5.8,3.6-9.5s-1.4-7-4.1-9.8C1471.7,229.6,1468.3,228.2,1464.2,228.2z"/>
	</g>
	<g class="st3">
		<path class="st2" d="M81.1,335.4c-0.1-1.4-0.7-2.1-2.1-2.1h-3.9c-2.3,0-3.5-1.1-3.5-3.2c0-2.1,1.3-3.2,3.8-3.2h6.1
			c4.1,0,6.3,1.8,6.5,5.5V343c0,3-0.4,5.4-1.3,7c-2.8,5.2-7.4,7.8-13.7,7.8c-11.9,0-17.9-9.9-17.9-29.5c0-8.3,1.5-15.1,4.5-20.4
			s7.6-7.9,13.8-7.9c5.7,0,9.8,2.2,12.3,6.6c1.5,2.7,2.3,5,2.3,6.9c0,2.1-1.1,3.1-3.3,3.1c-2.1,0-3.5-1.2-4.1-3.7
			c-1-4.2-3.5-6.4-7.5-6.4c-7.2,0-10.9,7.1-10.9,21.4c0,15.8,3.6,23.6,10.7,23.6c5.3,0,7.9-2.7,8-8.2L81.1,335.4L81.1,335.4z"/>
		<path class="st2" d="M109.8,317.3c4.8,0,8.6,1.7,11.5,5.1c2.9,3.4,4.4,8.5,4.4,15.2c0,13.4-5.4,20.2-16.2,20.2
			c-10.8,0-16.2-6.8-16.2-20.2C93.4,324.1,98.9,317.3,109.8,317.3z M109.5,323.4c-6.2,0-9.2,5.1-9.2,15.4c0,8.7,3.1,13.1,9.3,13.1
			c6.2,0,9.2-4.7,9.2-14C118.8,328.2,115.7,323.4,109.5,323.4z"/>
		<path class="st2" d="M147.7,317.3c4.8,0,8.6,1.7,11.5,5.1c2.9,3.4,4.4,8.5,4.4,15.2c0,13.4-5.4,20.2-16.2,20.2
			s-16.2-6.8-16.2-20.2C131.2,324.1,136.7,317.3,147.7,317.3z M147.3,323.4c-6.2,0-9.2,5.1-9.2,15.4c0,8.7,3.1,13.1,9.3,13.1
			c6.2,0,9.2-4.7,9.2-14C156.6,328.2,153.5,323.4,147.3,323.4z"/>
		<path class="st2" d="M193.9,351.9c-2.7,3.9-6.2,5.9-10.6,5.9c-4.7,0-8.3-1.9-10.7-5.8s-3.6-8.8-3.6-14.9c0-6,1.3-10.8,4-14.4
			s6.1-5.4,10.4-5.4s7.8,2,10.6,6.1V304c0-2.7,1.1-4.1,3.4-4.1c2.2,0,3.3,1.4,3.3,4.1v50.5c0,2.3-1.1,3.4-3.4,3.4
			c-2.2,0-3.3-1-3.3-3.1L193.9,351.9L193.9,351.9z M193.9,333.5c0-2.1-0.9-4.4-2.6-6.7c-1.8-2.3-4.1-3.5-6.9-3.5
			c-5.7,0-8.5,4.7-8.5,14c0,9.7,2.8,14.5,8.3,14.5c2.8,0,5.1-1,6.9-3.1c1.8-2.1,2.8-4.3,2.8-6.6L193.9,333.5L193.9,333.5z"/>
		<path class="st2" d="M251.8,339.2v0.7c0.1,8.3,3.2,12.4,9.6,12.4c4.2,0,7-2,8.3-5.8c0.7-2.1,1.9-3.2,3.7-3.2c2.2,0,3.2,1,3.2,3
			c0,2.6-1.4,5.2-4.1,7.8c-2.7,2.6-6.4,3.9-10.9,3.9c-5.3,0-9.4-1.8-12.3-5.5s-4.4-8.6-4.4-14.8c0-6.1,1.4-11,4.1-14.7
			s6.7-5.6,11.8-5.6c5.1,0,9,1.6,11.7,4.8c2.7,3.2,4.1,7.3,4.1,12.4c0,3.1-1.6,4.6-4.8,4.6H251.8L251.8,339.2z M252,333.3h16.8
			c0.6,0,0.9-0.3,0.9-0.8c0-2.4-0.7-4.6-2.2-6.6s-3.6-3-6.5-3C255.7,323,252.7,326.4,252,333.3z"/>
		<path class="st2" d="M298.6,350l10.1-29.8c0.6-1.9,1.8-2.9,3.4-2.9c2.2,0,3.2,1,3.2,2.9l-0.1,1l-11.5,33c-0.8,2.4-2.6,3.6-5.2,3.6
			s-4.3-1.2-5.2-3.6l-11.1-32.1c-0.3-0.8-0.4-1.4-0.4-1.9c0-1.9,1.1-2.9,3.2-2.9c1.6,0,2.8,1,3.5,3.1L298.6,350z"/>
		<path class="st2" d="M327.4,339.2v0.7c0.1,8.3,3.2,12.4,9.6,12.4c4.2,0,7-2,8.3-5.8c0.7-2.1,1.9-3.2,3.7-3.2c2.2,0,3.2,1,3.2,3
			c0,2.6-1.4,5.2-4.1,7.8c-2.7,2.6-6.4,3.9-10.9,3.9c-5.3,0-9.4-1.8-12.3-5.5s-4.4-8.6-4.4-14.8c0-6.1,1.4-11,4.1-14.7
			s6.7-5.6,11.8-5.6c5.1,0,9,1.6,11.7,4.8c2.7,3.2,4.1,7.3,4.1,12.4c0,3.1-1.6,4.6-4.8,4.6H327.4L327.4,339.2z M327.7,333.3h16.8
			c0.6,0,0.9-0.3,0.9-0.8c0-2.4-0.7-4.6-2.2-6.6s-3.6-3-6.5-3C331.3,323,328.4,326.4,327.7,333.3z"/>
		<path class="st2" d="M365.5,324.5c3.6-4.8,7.8-7.2,12.7-7.2c7.6,0,11.5,4.4,11.6,13.3v23.2c0,2.7-1.1,4.1-3.4,4.1
			c-2.2,0-3.3-1.4-3.3-4.1v-22c0-5.7-2.1-8.5-6.3-8.5c-3.2,0-5.8,1.2-8,3.6c-2.2,2.4-3.3,4.7-3.3,6.9v20c0,2.7-1.1,4.1-3.4,4.1
			c-2.2,0-3.3-1.4-3.3-4.1v-32.7c0-2.5,1.1-3.8,3.3-3.8c2.3,0,3.4,1.2,3.4,3.7L365.5,324.5L365.5,324.5z"/>
		<path class="st2" d="M412.2,299.9c1.4,0,2.5,0.5,3.5,1.6c0.8,0.9,1.3,2,1.3,3.2c0,3.2-1.6,4.8-4.8,4.8c-3.2,0-4.8-1.6-4.8-4.8
			C407.3,301.5,408.9,299.9,412.2,299.9z M408.5,321.9c0-2.8,1.2-4.2,3.5-4.2s3.5,1.4,3.5,4.2v31.8c0,2.8-1.2,4.1-3.5,4.1
			s-3.5-1.4-3.5-4.1V321.9z"/>
		<path class="st2" d="M441.1,324.5c3.6-4.8,7.8-7.2,12.7-7.2c7.6,0,11.5,4.4,11.6,13.3v23.2c0,2.7-1.1,4.1-3.4,4.1
			c-2.2,0-3.3-1.4-3.3-4.1v-22c0-5.7-2.1-8.5-6.3-8.5c-3.1,0-5.8,1.2-8,3.6c-2.2,2.4-3.3,4.7-3.3,6.9v20c0,2.7-1.1,4.1-3.4,4.1
			c-2.2,0-3.3-1.4-3.3-4.1v-32.7c0-2.5,1.1-3.8,3.3-3.8c2.3,0,3.4,1.2,3.4,3.7L441.1,324.5L441.1,324.5z"/>
		<path class="st2" d="M496.4,320.6c2.2-2.2,4.2-3.3,6.1-3.3c1.7,0,2.6,1,2.6,3c0,1.5-0.8,2.5-2.5,3.1c-1.7,0.5-2.8,0.9-3.2,1.2
			c1,1.9,1.5,3.8,1.5,5.9c0,3.1-1.3,5.8-3.8,7.9s-5.7,3.2-9.5,3.2c-1.4,0-2.8-0.2-4.1-0.5c-1.7,0.6-2.5,1.4-2.5,2.2
			c0,1.1,1.7,2,5,2.5c6.5,1,11.1,2.4,13.7,4.2c2.6,1.8,3.9,4.2,3.9,7.3c0,6.2-5.5,9.4-16.5,9.4c-10.6,0-15.9-3-15.9-8.9
			c0-4,2.7-6.9,8.1-8.6c-3.2-1.2-4.9-2.8-4.9-4.6c0-1.9,1.6-3.6,4.9-5.2c-3.9-2.3-5.8-5.5-5.8-9.7c0-3.5,1.3-6.4,3.8-8.8
			c2.6-2.4,5.9-3.7,10-3.7C491,317.3,494.1,318.4,496.4,320.6z M485.3,350.9c-5.2,1-7.8,2.9-7.8,5.7c0,3.2,3.1,4.8,9.2,4.8
			c7,0,10.6-1.5,10.6-4.5c0-1.8-1.6-3.3-5-4.5C488.9,351.1,486.6,350.7,485.3,350.9z M487.2,322.5c-2.3,0-4.2,0.8-5.7,2.4
			c-1.2,1.4-1.9,3-1.9,4.9c0,2,0.7,3.6,2.1,4.9c1.5,1.3,3.3,1.9,5.5,1.9c4.9,0,7.4-2.3,7.4-6.9C494.6,325,492.1,322.5,487.2,322.5z"
			/>
		<path class="st2" d="M559.7,318.4v-9.3c0-5.3,2.9-8,8.7-8.1h4.7c2.3,0,3.4,1,3.4,3s-1.1,3-3.4,3h-2.6c-2.7,0-4,1.3-4.1,3.9v7.5
			h6.8c2.5,0,3.7,1,3.7,3s-1.2,3-3.7,3h-6.8v29.4c0,2.7-1.1,4.1-3.4,4.1c-2.2,0-3.3-1.4-3.3-4.1v-29.4h-6c-2.5,0-3.7-1-3.7-3
			s1.2-3,3.7-3L559.7,318.4L559.7,318.4z"/>
		<path class="st2" d="M598.1,324c3.4-4.4,7.2-6.6,11.3-6.6c2.3,0,3.5,1.1,3.5,3.2c0,2.1-1.5,3.4-4.6,3.7c-3,0.4-5.5,1.5-7.3,3.3
			c-1.8,1.9-2.8,3.7-2.8,5.6v20.6c0,2.7-1.1,4.1-3.4,4.1c-2.2,0-3.3-1.4-3.3-4.1v-32.4c0-2.7,1.1-4.1,3.4-4.1c2.2,0,3.3,1.3,3.3,3.9
			L598.1,324L598.1,324z"/>
		<path class="st2" d="M639.3,317.3c4.8,0,8.6,1.7,11.5,5.1c2.9,3.4,4.4,8.5,4.4,15.2c0,13.4-5.4,20.2-16.2,20.2
			s-16.2-6.8-16.2-20.2C622.8,324.1,628.3,317.3,639.3,317.3z M638.9,323.4c-6.2,0-9.2,5.1-9.2,15.4c0,8.7,3.1,13.1,9.3,13.1
			s9.2-4.7,9.2-14C648.2,328.2,645.1,323.4,638.9,323.4z"/>
		<path class="st2" d="M679.2,322.2c1.9-3.2,4.2-4.9,6.9-4.9c4.5,0,6.8,3.4,6.9,10.2v26.7c0,2.5-1.1,3.7-3.2,3.7
			c-2.1,0-3.1-1.2-3.1-3.7V328c0-3.5-0.7-5.3-2.2-5.3c-1.3,0-2.4,0.8-3.2,2.5c-0.8,1.7-1.3,3-1.3,4v25c0,2.5-1.1,3.7-3.2,3.7
			c-2.1,0-3.1-1.2-3.1-3.7v-25.7c0-3.9-0.7-5.8-2.1-5.8c-1,0-2,0.8-3.1,2.4c-1.1,1.6-1.7,3-1.7,4.4v24.8c0,2.5-1.1,3.7-3.2,3.7
			c-2.1,0-3.1-1.2-3.1-3.7v-33.8c0-2,1.1-3,3.2-3c2.1,0,3.1,0.9,3.1,2.7v1.8c2.1-3.1,4.3-4.7,6.8-4.7
			C676.4,317.3,678.3,318.9,679.2,322.2z"/>
		<path class="st2" d="M747.9,318.4v-10c0-2.7,1.1-4.1,3.4-4.1c2.2,0,3.3,1.4,3.3,4.1v10h6.5c2.5,0,3.7,1,3.7,3s-1.2,3-3.7,3h-6.4
			V346c0,2.5,0.5,3.9,1.4,4.4c0.5,0.3,2.1,0.4,4.5,0.4c2.5,0,3.7,1,3.7,3s-1.1,3-3.3,3h-4c-3.7,0-6.2-0.7-7.5-2.1
			c-1.1-1.4-1.6-3.9-1.6-7.7v-22.7h-5.4c-2.5,0-3.7-1-3.7-3s1.2-3,3.7-3h5.4V318.4z"/>
		<path class="st2" d="M781.5,324.5c3.6-4.8,7.8-7.2,12.7-7.2c7.6,0,11.5,4.4,11.6,13.3v23.2c0,2.7-1.1,4.1-3.4,4.1
			c-2.2,0-3.3-1.4-3.3-4.1v-22c0-5.7-2.1-8.5-6.3-8.5c-3.2,0-5.8,1.2-8,3.6c-2.2,2.4-3.3,4.7-3.3,6.9v19.9c0,2.7-1.1,4.1-3.4,4.1
			c-2.2,0-3.3-1.4-3.3-4.1V304c0-2.7,1.1-4.1,3.4-4.1c2.2,0,3.3,1.4,3.3,4.1V324.5L781.5,324.5z"/>
		<path class="st2" d="M819.1,339.2v0.7c0,8.3,3.2,12.4,9.6,12.4c4.2,0,7-2,8.3-5.8c0.7-2.1,1.9-3.2,3.7-3.2c2.2,0,3.2,1,3.2,3
			c0,2.6-1.4,5.2-4.1,7.8c-2.7,2.6-6.4,3.9-10.9,3.9c-5.3,0-9.4-1.8-12.3-5.5s-4.4-8.6-4.4-14.8c0-6.1,1.4-11,4.1-14.7
			s6.7-5.6,11.8-5.6s9,1.6,11.7,4.8c2.7,3.2,4.1,7.3,4.1,12.4c0,3.1-1.6,4.6-4.8,4.6H819.1L819.1,339.2z M819.3,333.3h16.8
			c0.6,0,0.9-0.3,0.9-0.8c0-2.4-0.7-4.6-2.2-6.6s-3.6-3-6.5-3C823,323,820,326.4,819.3,333.3z"/>
		<path class="st2" d="M900.2,304.1c0-2.8,1.2-4.2,3.5-4.2s3.5,1.4,3.5,4.2v49.5c0,2.8-1.2,4.2-3.5,4.2s-3.5-1.4-3.5-4.2V304.1z"/>
		<path class="st2" d="M950.5,351.7c-3.8,4.1-8,6.1-12.8,6.1c-3.9,0-7-1-9.1-3.1c-2.1-2.1-3.2-4.7-3.2-7.9c0-8.6,6.3-13.2,19-14
			l6.1-0.1v-2.5c0-4.6-2.7-6.9-8-6.9c-3.5,0-6.1,1.5-7.8,4.6c-0.9,1.5-2.2,2.3-3.9,2.3c-2.3,0-3.5-1-3.5-3c0-1.4,0.6-2.9,1.9-4.5
			c2.8-3.5,7-5.3,12.8-5.3c9.8,0,14.8,4.3,15,13v24.2c0,2.2-1.1,3.3-3.3,3.3s-3.2-1-3.2-3.1V351.7L950.5,351.7z M950.5,337.7
			c-7.5,0.2-12.5,1.1-14.8,2.6c-2.4,1.5-3.5,3.6-3.5,6.3c0,3.7,2,5.6,6.1,5.6c3.1,0,5.9-1.1,8.5-3.2c2.5-2.1,3.8-4,3.9-5.6
			L950.5,337.7L950.5,337.7z"/>
		<path class="st2" d="M970.6,324.5c3.6-4.8,7.8-7.2,12.7-7.2c7.6,0,11.5,4.4,11.6,13.3v23.2c0,2.7-1.1,4.1-3.4,4.1
			c-2.2,0-3.3-1.4-3.3-4.1v-22c0-5.7-2.1-8.5-6.3-8.5c-3.2,0-5.8,1.2-8,3.6c-2.2,2.4-3.3,4.7-3.3,6.9v20c0,2.7-1.1,4.1-3.4,4.1
			c-2.2,0-3.3-1.4-3.3-4.1v-32.7c0-2.5,1.1-3.8,3.3-3.8c2.3,0,3.4,1.2,3.4,3.7L970.6,324.5L970.6,324.5z"/>
		<path class="st2" d="M1025.9,351.9c-2.7,3.9-6.2,5.9-10.6,5.9c-4.7,0-8.3-1.9-10.7-5.8c-2.4-3.8-3.6-8.8-3.6-14.9
			c0-6,1.3-10.8,4-14.4s6.1-5.4,10.5-5.4c4.3,0,7.8,2,10.6,6.1V304c0-2.7,1.1-4.1,3.4-4.1c2.2,0,3.3,1.4,3.3,4.1v50.5
			c0,2.3-1.1,3.4-3.4,3.4c-2.2,0-3.3-1-3.3-3.1L1025.9,351.9L1025.9,351.9z M1025.9,333.5c0-2.1-0.9-4.4-2.6-6.7
			c-1.8-2.3-4-3.5-6.9-3.5c-5.7,0-8.5,4.7-8.5,14c0,9.7,2.8,14.5,8.3,14.5c2.8,0,5.1-1,6.9-3.1c1.8-2.1,2.8-4.3,2.8-6.6V333.5
			L1025.9,333.5z"/>
		<path class="st2" d="M1093.1,317.3c4.8,0,8.6,1.7,11.5,5.1c2.9,3.4,4.4,8.5,4.4,15.2c0,13.4-5.4,20.2-16.2,20.2
			c-10.8,0-16.2-6.8-16.2-20.2C1076.6,324.1,1082.1,317.3,1093.1,317.3z M1092.7,323.4c-6.2,0-9.2,5.1-9.2,15.4
			c0,8.7,3.1,13.1,9.3,13.1c6.2,0,9.2-4.7,9.2-14C1102,328.2,1098.9,323.4,1092.7,323.4z"/>
		<path class="st2" d="M1126.9,318.4v-9.3c0-5.3,2.9-8,8.7-8.1h4.7c2.3,0,3.4,1,3.4,3s-1.1,3-3.4,3h-2.6c-2.7,0-4,1.3-4.1,3.9v7.5
			h6.8c2.5,0,3.7,1,3.7,3s-1.2,3-3.7,3h-6.8v29.4c0,2.7-1.1,4.1-3.4,4.1c-2.2,0-3.3-1.4-3.3-4.1v-29.4h-6c-2.5,0-3.7-1-3.7-3
			s1.2-3,3.7-3L1126.9,318.4L1126.9,318.4z"/>
		<path class="st2" d="M1215,351.9c-2.7,3.9-6.2,5.9-10.6,5.9c-4.7,0-8.3-1.9-10.7-5.8c-2.4-3.8-3.6-8.8-3.6-14.9
			c0-6,1.3-10.8,3.9-14.4c2.6-3.6,6.1-5.4,10.4-5.4c4.3,0,7.8,2,10.6,6.1V304c0-2.7,1.1-4.1,3.4-4.1c2.2,0,3.3,1.4,3.3,4.1v50.5
			c0,2.3-1.1,3.4-3.4,3.4c-2.2,0-3.3-1-3.3-3.1V351.9L1215,351.9z M1215,333.5c0-2.1-0.9-4.4-2.6-6.7c-1.8-2.3-4.1-3.5-6.9-3.5
			c-5.7,0-8.5,4.7-8.5,14c0,9.7,2.8,14.5,8.3,14.5c2.8,0,5.1-1,6.9-3.1c1.8-2.1,2.8-4.3,2.8-6.6V333.5L1215,333.5z"/>
		<path class="st2" d="M1241,324c3.4-4.4,7.2-6.6,11.3-6.6c2.3,0,3.5,1.1,3.5,3.2c0,2.1-1.5,3.4-4.6,3.7c-3.1,0.4-5.5,1.5-7.3,3.3
			c-1.8,1.9-2.8,3.7-2.8,5.6v20.6c0,2.7-1.1,4.1-3.4,4.1c-2.2,0-3.3-1.4-3.3-4.1v-32.4c0-2.7,1.1-4.1,3.4-4.1c2.2,0,3.3,1.3,3.3,3.9
			L1241,324L1241,324z"/>
		<path class="st2" d="M1272.9,339.2v0.7c0.1,8.3,3.2,12.4,9.6,12.4c4.2,0,7-2,8.3-5.8c0.7-2.1,1.9-3.2,3.7-3.2c2.2,0,3.2,1,3.2,3
			c0,2.6-1.4,5.2-4.1,7.8c-2.7,2.6-6.4,3.9-10.9,3.9c-5.3,0-9.4-1.8-12.3-5.5s-4.4-8.6-4.4-14.8c0-6.1,1.4-11,4.1-14.7
			c2.7-3.7,6.7-5.6,11.8-5.6s9,1.6,11.7,4.8c2.7,3.2,4.1,7.3,4.1,12.4c0,3.1-1.6,4.6-4.8,4.6H1272.9L1272.9,339.2z M1273.1,333.3
			h16.8c0.6,0,0.9-0.3,0.9-0.8c0-2.4-0.7-4.6-2.2-6.6c-1.4-2-3.6-3-6.5-3C1276.8,323,1273.8,326.4,1273.1,333.3z"/>
		<path class="st2" d="M1328.6,351.7c-3.8,4.1-8.1,6.1-12.8,6.1c-3.9,0-7-1-9.1-3.1c-2.1-2.1-3.2-4.7-3.2-7.9c0-8.6,6.3-13.2,19-14
			l6.1-0.1v-2.5c0-4.6-2.7-6.9-8-6.9c-3.4,0-6.1,1.5-7.8,4.6c-0.9,1.5-2.2,2.3-3.9,2.3c-2.3,0-3.5-1-3.5-3c0-1.4,0.6-2.9,1.9-4.5
			c2.8-3.5,7-5.3,12.8-5.3c9.8,0,14.8,4.3,15,13v24.2c0,2.2-1.1,3.3-3.3,3.3c-2.2,0-3.2-1-3.2-3.1V351.7L1328.6,351.7z
			 M1328.6,337.7c-7.5,0.2-12.5,1.1-14.8,2.6c-2.4,1.5-3.6,3.6-3.6,6.3c0,3.7,2,5.6,6.1,5.6c3.1,0,5.9-1.1,8.5-3.2
			c2.5-2.1,3.8-4,3.9-5.6L1328.6,337.7L1328.6,337.7z"/>
		<path class="st2" d="M1359.9,322.2c1.9-3.2,4.2-4.9,6.9-4.9c4.5,0,6.8,3.4,6.9,10.2v26.7c0,2.5-1.1,3.7-3.2,3.7
			c-2.1,0-3.1-1.2-3.1-3.7V328c0-3.5-0.7-5.3-2.2-5.3c-1.3,0-2.4,0.8-3.2,2.5c-0.8,1.7-1.3,3-1.3,4v25c0,2.5-1.1,3.7-3.2,3.7
			c-2.1,0-3.1-1.2-3.1-3.7v-25.7c0-3.9-0.7-5.8-2.1-5.8c-1,0-2,0.8-3.1,2.4c-1.1,1.6-1.7,3-1.7,4.4v24.8c0,2.5-1.1,3.7-3.2,3.7
			s-3.1-1.2-3.1-3.7v-33.8c0-2,1.1-3,3.2-3c2.1,0,3.1,0.9,3.1,2.7v1.8c2.1-3.1,4.3-4.7,6.8-4.7
			C1357.1,317.3,1359,318.9,1359.9,322.2z"/>
		<path class="st2" d="M1410.5,346.6c0,3.3-1.2,6-3.7,8.1s-6.1,3.1-10.9,3.1c-5,0-8.9-1.1-11.7-3.3c-2.8-2.2-4.2-4.5-4.2-7
			c0-2,1.1-3,3.3-3c1.4,0,2.9,1.2,4.6,3.7c1.7,2.5,4.3,3.7,7.8,3.7c5,0,7.5-1.8,7.5-5.3c0-2.2-1.7-4-5.2-5.4l-7.9-3.1
			c-6.2-2.4-9.4-5.8-9.4-10.2c0-3.2,1.3-5.8,3.9-7.8s5.9-3,10-3c4.3,0,7.8,1.1,10.5,3.2c2.7,2.1,4,4.2,4,6.3c0,1.9-1.1,2.9-3.2,2.9
			c-1.6,0-3-1.1-4.4-3.2c-1.4-2.2-3.6-3.2-6.8-3.2c-4.5,0-6.8,1.6-6.8,4.8c0,2.1,1.8,3.8,5.5,5.2l8.2,3.1
			C1407.6,338.5,1410.5,342,1410.5,346.6z"/>
		<path class="st2" d="M1423.8,344.3c1.5,0,2.7,0.5,3.8,1.6c1.1,1.1,1.6,2.4,1.6,3.8c0,1.5-0.5,2.8-1.6,3.9s-2.4,1.6-3.8,1.6
			c-1.6,0-3-0.6-4.1-1.8c-0.9-1.1-1.4-2.3-1.4-3.8s0.5-2.7,1.6-3.8C1420.9,344.8,1422.2,344.3,1423.8,344.3z"/>
	</g>
</g>
</svg>
